<?xml version="1.0" standalone="no"?>
<!DOCTYPE svg PUBLIC "-//W3C//DTD SVG 1.1//EN" "http://www.w3.org/Graphics/SVG/1.1/DTD/svg11.dtd" >
<svg>
<metadata>
Created by FontForge 20110222 at Mon Mar  7 04:13:27 2011
 By www-data
[C] Tepid Monkey Fonts - http://fontframe.com/tepidmonkey
</metadata>
<defs>
<font id="EagerNaturalist" horiz-adv-x="578" >
  <font-face 
    font-family="Eager Naturalist"
    font-weight="400"
    font-stretch="normal"
    units-per-em="1000"
    panose-1="2 0 5 3 0 0 0 0 0 0"
    ascent="800"
    descent="-200"
    x-height="389"
    cap-height="672"
    bbox="-269 -293 998 966"
    underline-thickness="20"
    underline-position="-143"
    unicode-range="U+0020-2122"
  />
    <missing-glyph />
    <glyph glyph-name="space" unicode=" " horiz-adv-x="251" 
 />
    <glyph glyph-name="exclam" unicode="!" horiz-adv-x="226" 
d="M194 642c0 -9 -11 -49 -20 -74c-5 -25 -10 -63 -13 -112c-6 -106 -6 -109 -20 -139c-5 -11 -6 -17 -6 -30c-8 -1 -16 -7 -24 -18c-38 19 -38 19 -54 166c0 29 2 48 24 226c9 27 29 40 62 40c23 0 51 -32 51 -59zM167 54c0 -13 -36 -48 -50 -48c-24 0 -63 21 -63 36
c0 17 41 39 72 39c14 0 41 -16 41 -27z" />
    <glyph glyph-name="quotedbl" unicode="&#x22;" horiz-adv-x="446" 
d="M401 686c0 -31 -6 -60 -19 -88c-15 -32 -23 -58 -25 -77c-7 -54 -9 -56 -25 -63c-16 0 -72 53 -72 65c0 14 6 40 19 77c3 9 4 19 4 31c0 6 -2 48 -3 48v-3c0 42 18 56 75 56c17 0 46 -29 46 -46zM139 621c0 -7 -4 -18 -11 -32c-7 -13 -10 -24 -10 -31c0 -5 1 -10 11 -66
c0 -23 -9 -34 -27 -34c-5 0 -34 18 -37 21c-3 7 -8 14 -16 21c-19 16 -24 30 -24 78l14 107c8 37 24 47 76 47c11 0 24 -63 24 -111z" />
    <glyph glyph-name="numbersign" unicode="#" horiz-adv-x="733" 
d="M785 532c0 -7 -20 -24 -59 -49h-13v30c-12 -11 -20 -20 -25 -27l-5 9c4 8 9 19 14 34h-33c-25 -7 -40 -9 -104 -9c-21 -124 -22 -133 -22 -162v-33c31 3 55 4 72 4c63 0 94 -12 94 -37c0 -20 -42 -38 -79 -38l-42 4c-5 0 -23 -4 -53 -13c-3 -7 -4 -16 -5 -28
c0 -15 1 -34 3 -66c0 -45 -11 -67 -34 -67c-40 0 -60 22 -60 66v53c0 19 -2 33 -7 41c-34 0 -35 0 -111 -16v-73c-5 -78 -5 -101 -5 -111s-11 -22 -32 -35c-5 5 -12 11 -22 16l-25 13c-5 116 -5 127 -5 186h-33c-12 -7 -13 -7 -14 -7c-51 0 -107 25 -107 49
c0 34 29 35 117 39c29 0 34 4 34 41l-4 50c1 4 10 70 10 71c0 29 -3 43 -9 43c-16 0 -40 -4 -72 -12c-31 -8 -55 -12 -71 -12c-38 0 -73 21 -73 49c0 31 84 51 212 51l12 8c4 9 6 20 6 46c0 2 0 22 -3 69c0 19 17 29 51 29c42 0 56 -15 56 -59c-5 -47 -7 -72 -7 -81
c5 -4 11 -6 17 -6c23 0 52 1 113 3l16 85c9 27 32 41 67 41c25 0 49 -19 49 -39c0 -18 -5 -39 -20 -81l101 -16c69 -11 110 -29 110 -53zM454 519c-15 5 -25 8 -30 8c-1 0 -24 -6 -39 -10c-9 0 -20 1 -39 3c-7 0 -12 -3 -16 -8c-8 -122 -8 -128 -12 -139l1 -57
c57 5 96 7 115 7z" />
    <glyph glyph-name="dollar" unicode="$" horiz-adv-x="590" 
d="M549 521c0 -18 -19 -34 -36 -34c-7 0 -28 11 -65 34c-39 25 -66 39 -81 42c-13 -105 -20 -167 -20 -188c13 -7 38 -16 74 -25c79 -21 89 -33 111 -125c0 -42 -102 -121 -170 -121c-4 -5 -6 -11 -6 -18c0 -1 4 -28 8 -45c0 -21 -21 -40 -44 -40c-29 0 -68 24 -68 44
c1 4 4 32 4 33c0 7 -2 13 -7 18c-53 1 -103 13 -148 36c-2 17 10 54 31 54c26 -24 29 -27 37 -27h83v154c0 13 -15 27 -45 43c-108 57 -127 72 -127 111c0 57 95 150 152 150c3 -1 8 -3 11 -3c6 0 9 4 10 12l27 7l4 -2c10 0 18 17 25 54c7 41 14 65 19 71h56l14 -9
c0 -55 -1 -68 -7 -78c-7 -13 -12 -24 -13 -33c129 -56 171 -83 171 -115zM275 552c-77 -37 -99 -55 -99 -83c0 -24 23 -35 78 -58c10 107 12 119 21 141zM443 238c0 30 -13 40 -61 46c-20 3 -34 6 -41 10c0 -28 2 -70 7 -125c81 23 95 32 95 69z" />
    <glyph glyph-name="percent" unicode="%" horiz-adv-x="864" 
d="M703 626l-220 -356c-120 -235 -120 -235 -153 -235c-3 0 -4 0 -11 9l-24 3c-12 13 -18 23 -18 28c0 8 6 22 19 42c18 29 18 30 30 79c22 37 123 209 161 275c77 163 103 200 147 200c41 0 69 -18 69 -45zM823 191c0 -64 -111 -149 -187 -149c-1 0 -2 0 -14 7
c-56 0 -98 35 -98 82c0 44 58 127 93 127c23 0 48 -20 48 -39c-44 -79 -45 -80 -45 -98c6 -2 10 -3 12 -3c33 0 91 63 91 90c-29 14 -31 15 -31 26c0 25 21 38 64 38c32 0 67 -44 67 -81zM352 463c0 -42 -98 -98 -183 -98c-35 0 -68 19 -98 58l-13 -3c-14 30 -15 33 -15 46
c0 54 90 150 143 150c12 0 29 -20 29 -33c0 -5 -14 -22 -41 -52c-27 -29 -41 -52 -41 -68c0 -17 13 -26 39 -26c25 0 74 28 74 43c0 9 -4 11 -48 31c-1 5 -5 12 -11 20c20 14 24 16 52 19c46 0 113 -49 113 -87z" />
    <glyph glyph-name="ampersand" unicode="&#x26;" horiz-adv-x="627" 
d="M596 259c0 -37 -16 -56 -113 -141c17 -9 41 -33 72 -72v-36h-46c-14 0 -28 10 -42 30c-16 23 -28 37 -37 41c-29 -29 -115 -58 -170 -58c-86 0 -172 69 -172 139c0 45 21 94 63 148c2 2 4 3 61 38c-53 85 -79 147 -79 186c0 85 76 174 151 174c105 0 182 -29 231 -86
c25 -30 38 -52 38 -66c0 -43 -35 -66 -186 -156c-44 -26 -66 -46 -66 -59c0 -21 98 -160 113 -160c25 0 96 64 106 90c5 13 8 29 8 48c9 -2 16 -3 19 -3l8 6c23 0 41 -30 41 -63zM474 584c-20 13 -82 36 -97 36c-2 0 -10 -3 -12 -4c-2 1 -23 11 -30 14
c-82 0 -130 -41 -130 -110c0 -34 26 -99 49 -121l122 80c47 35 80 70 98 105zM370 145c-35 40 -73 92 -115 157c-57 -56 -85 -105 -85 -148c0 -37 16 -55 49 -55c68 0 126 23 151 46z" />
    <glyph glyph-name="quotesingle" unicode="'" horiz-adv-x="256" 
d="M228 686c0 -16 -20 -47 -60 -93c-4 -6 -12 -31 -23 -76c-10 -39 -19 -59 -26 -59c-16 0 -72 52 -72 65c0 38 43 152 69 188c10 14 28 21 54 21c28 0 58 -23 58 -46z" />
    <glyph glyph-name="parenleft" unicode="(" horiz-adv-x="365" 
d="M383 734c0 -24 -7 -29 -70 -43c-98 -41 -164 -183 -164 -352c0 -105 38 -216 85 -239c65 -27 80 -34 80 -66c0 -16 -11 -24 -33 -24c-42 0 -120 43 -143 78c-73 128 -91 161 -91 345c0 85 74 229 161 313c36 12 40 14 62 29c11 7 20 10 29 10c33 0 84 -28 84 -51z" />
    <glyph glyph-name="parenright" unicode=")" horiz-adv-x="432" 
d="M382 332c0 -174 -82 -266 -136 -303c-22 -15 -37 -23 -45 -23c-20 0 -57 39 -57 59c0 14 6 21 64 58c54 53 81 129 81 230c0 85 -12 160 -37 226c-91 173 -91 173 -91 182c0 14 6 21 17 21c54 0 103 -63 148 -189c37 -105 56 -192 56 -261z" />
    <glyph glyph-name="asterisk" unicode="*" horiz-adv-x="528" 
d="M511 615c0 -12 -8 -23 -24 -32c-72 -29 -120 -54 -166 -88v-23c0 -58 12 -76 108 -176c25 -27 38 -46 38 -59c0 -15 -10 -22 -29 -22c-26 0 -51 23 -123 95c-3 -13 -5 -26 -5 -39l8 -92l-4 -82c0 -4 5 -25 13 -53c0 -22 -20 -37 -50 -37c-53 0 -70 31 -70 126
c0 25 1 41 9 263c0 11 -2 16 -5 16c-8 0 -47 -41 -118 -122c-35 5 -53 22 -53 51c0 46 13 62 123 148c-43 84 -65 134 -65 150c0 17 12 26 36 26c44 0 49 -9 92 -109c9 18 15 55 18 111c3 61 8 101 15 120l61 -2c23 -4 34 -17 34 -40c0 -17 0 -21 -14 -135
c38 27 73 41 104 41c29 0 67 -19 67 -36z" />
    <glyph glyph-name="plus" unicode="+" horiz-adv-x="692" 
d="M675 336c0 -23 -26 -35 -78 -35c-2 0 -120 4 -160 4c-32 0 -51 -3 -56 -9c-4 -39 -9 -97 -16 -175c-9 -12 -18 -18 -26 -18c-3 0 -3 0 -10 7c-7 0 -19 4 -36 12l1 5l-4 3l-5 -1l2 -5c-16 29 -16 30 -16 51c0 29 5 71 14 128c-11 6 -27 9 -46 9c-5 -2 -20 -7 -21 -7l-4 1
v5c-10 5 -28 10 -55 13c-46 -2 -79 23 -79 63c17 11 32 17 45 17c12 0 14 0 82 -20c18 -1 46 -3 82 -7c19 40 29 100 29 179c0 42 9 53 45 53c41 0 62 -16 62 -49c0 -20 -5 -49 -16 -88c-10 -38 -15 -67 -15 -87c0 -4 1 -6 4 -6h8l-3 -5c5 -3 15 -5 32 -5c8 1 148 8 149 8
c61 0 91 -14 91 -41z" />
    <glyph glyph-name="comma" unicode="," horiz-adv-x="407" 
d="M340 56c0 -14 -8 -30 -23 -49c-51 -62 -54 -66 -72 -110c-25 -58 -26 -61 -44 -69c-3 0 -5 0 -37 21c-3 10 -5 25 -5 44c0 62 7 83 43 146c33 58 40 63 80 63c28 0 58 -23 58 -46z" />
    <glyph glyph-name="hyphen" unicode="-" horiz-adv-x="679" 
d="M623 331c0 -31 -22 -34 -104 -34c-92 -1 -93 -1 -164 -10c-28 -3 -52 -5 -72 -5c-133 0 -199 20 -199 61c0 7 31 22 39 22c14 0 34 -3 61 -9c31 -6 107 -12 130 -12c28 0 70 4 126 12s98 12 126 12c1 0 9 -1 22 -3l7 -7c19 -6 28 -15 28 -27z" />
    <glyph glyph-name="period" unicode="." horiz-adv-x="217" 
d="M164 62c0 -29 -53 -51 -76 -51c-21 0 -66 23 -66 42c0 13 27 31 80 52c24 -1 62 -25 62 -43z" />
    <glyph glyph-name="slash" unicode="/" horiz-adv-x="544" 
d="M522 634c0 -19 -6 -30 -17 -34c-42 -71 -125 -197 -249 -379c-63 -93 -87 -137 -99 -187c-19 -7 -24 -7 -55 -7c-3 12 -10 20 -21 25c21 106 51 152 277 466c29 55 45 85 49 93c26 41 52 61 77 61s38 -13 38 -38z" />
    <glyph glyph-name="zero" unicode="0" horiz-adv-x="807" 
d="M765 402c0 -61 -19 -186 -148 -286c-15 -8 -36 -21 -62 -40c-9 -18 -16 -24 -84 -50c-43 -17 -72 -25 -85 -25h-37l-70 18c-1 0 -1 0 -9 -4c-23 0 -99 55 -120 80c-42 49 -63 115 -63 197c0 150 74 244 104 244c10 21 82 68 105 68c6 -4 7 -4 8 -4l5 2l-1 3
c46 13 74 19 84 19c61 0 111 -30 112 -64c-12 -13 -25 -19 -39 -19c-11 0 -18 2 -56 15c-43 -13 -47 -13 -54 -13l-3 2c-124 -59 -173 -132 -173 -254c0 -136 67 -231 165 -231c97 0 241 93 293 187c24 42 45 129 45 184c0 115 -38 173 -115 173c-10 0 -28 -1 -55 -3
c-3 8 -4 13 -4 16c0 23 24 35 71 35c9 0 17 -3 23 -9c64 5 124 -51 138 -120z" />
    <glyph glyph-name="one" unicode="1" horiz-adv-x="305" 
d="M254 555c0 -27 -5 -68 -14 -123c-9 -54 -14 -95 -14 -122v-114l-6 -46l6 -96c0 -35 -6 -45 -32 -45c-7 0 -17 7 -28 20c-26 0 -39 40 -39 120c0 141 12 290 35 445c8 6 16 9 25 9c37 0 67 -22 67 -48z" />
    <glyph glyph-name="two" unicode="2" horiz-adv-x="613" 
d="M641 73c0 -25 -79 -43 -168 -38l2 1l-5 5c-15 -6 -33 -11 -35 -11s-3 0 -12 4c-9 0 -23 -4 -41 -11c-17 -7 -31 -10 -40 -10h1c-33 2 -35 2 -114 -7c-70 0 -154 25 -154 60c0 9 19 28 56 57c28 38 48 57 69 68c51 26 102 63 153 112l4 -2l-1 -5c93 123 109 145 109 182
c0 27 -31 50 -93 70c-50 16 -93 24 -128 24c-17 0 -23 -3 -107 -38c-24 -3 -51 25 -51 58c34 28 64 42 91 42c11 -4 12 -4 14 -4c3 1 12 5 24 11c35 -5 55 -7 62 -7c140 0 284 -102 284 -190c0 -57 -131 -213 -211 -268c-35 -23 -77 -54 -127 -92l122 1h-2
c0 7 154 25 242 25c18 0 56 -22 56 -37z" />
    <glyph glyph-name="three" unicode="3" horiz-adv-x="517" 
d="M553 560c0 -27 -55 -54 -202 -97c-65 -19 -115 -39 -149 -60c13 -21 44 -46 94 -73c146 -80 185 -104 185 -151c0 -45 -50 -97 -112 -120c-68 -31 -76 -34 -79 -34l-7 4l-26 -14l-7 7h-76v30c149 62 200 96 200 137c0 17 -48 55 -145 115s-145 99 -145 118l4 27
c44 0 58 5 64 18l7 -11c25 21 65 41 120 60c63 21 105 37 126 50c0 3 0 3 -2 7c-49 21 -141 32 -277 32c-35 0 -65 20 -65 43v18c22 10 48 15 80 15c131 0 412 -62 412 -121z" />
    <glyph glyph-name="four" unicode="4" horiz-adv-x="718" 
d="M708 271c0 -13 -8 -21 -25 -24c-66 -3 -194 -22 -263 -46l-4 -72c0 -10 3 -25 8 -44c6 -19 9 -34 9 -44c0 -24 -18 -36 -53 -36c-25 0 -64 34 -64 57c0 26 1 60 3 131c0 5 -2 8 -5 10c-109 0 -118 2 -179 35c-41 22 -62 39 -62 50c0 14 198 228 319 345
c20 19 39 28 58 28c27 0 47 -7 62 -21c0 -34 0 -36 -50 -174c-19 -77 -29 -134 -29 -170c3 -4 7 -6 12 -6c11 2 90 15 91 15l64 -4c5 0 8 3 9 9h37c25 0 62 -18 62 -39zM367 465c-44 -32 -71 -62 -164 -177c17 -6 26 -7 28 -8h95c11 31 13 41 41 185z" />
    <glyph glyph-name="five" unicode="5" horiz-adv-x="575" 
d="M534 140c0 -130 -109 -290 -236 -346c-29 -13 -44 -19 -47 -19c-15 0 -58 20 -58 32c0 5 5 11 15 17c121 71 234 214 234 318c0 88 -78 184 -166 205c-15 3 -39 5 -71 5c-63 0 -94 15 -94 46c40 121 46 148 50 212c4 56 18 69 87 69c3 0 5 -2 6 -5c5 -14 37 -26 55 -26
c100 0 164 -20 164 -51c0 -23 -11 -34 -34 -34c-12 0 -30 3 -53 8c-23 6 -40 9 -52 9l-7 7c-37 5 -56 7 -57 7c-4 0 -46 -118 -46 -168c148 -32 310 -177 310 -286z" />
    <glyph glyph-name="six" unicode="6" horiz-adv-x="602" 
d="M559 229c0 -76 -30 -112 -150 -198c-21 -15 -100 -30 -104 -30c-16 0 -41 6 -74 19c-95 36 -143 114 -143 234c0 119 35 222 118 348c52 79 92 119 121 119c38 0 66 -21 66 -49c0 -9 -3 -16 -9 -23c-119 -79 -151 -185 -202 -382c0 -6 2 -12 5 -17c34 52 117 98 178 98
l3 -1l-1 -4l3 -2l5 2l-1 3h50c68 0 135 -58 135 -117zM466 224c0 36 -26 54 -77 54c-70 0 -147 -58 -157 -119l-8 -4l-11 -35c0 -19 48 -53 74 -53c32 0 70 18 113 55c44 37 66 71 66 102z" />
    <glyph glyph-name="seven" unicode="7" horiz-adv-x="672" 
d="M646 578c0 -59 -23 -141 -68 -245c-80 -182 -89 -217 -95 -299c-4 -23 -15 -34 -32 -34l-7 -7c-10 3 -11 3 -64 39c2 43 18 119 49 227l8 7c5 14 20 52 45 114c57 132 67 163 67 217c0 26 -4 26 -119 32c-148 0 -166 -7 -290 -56c-39 0 -80 24 -80 52c0 17 92 47 185 61
c76 2 77 2 137 15h175c11 0 28 -9 49 -26c27 -22 40 -54 40 -97z" />
    <glyph glyph-name="eight" unicode="8" horiz-adv-x="496" 
d="M400 472c-61 -63 -92 -107 -92 -130c0 -6 12 -22 35 -47c73 -80 100 -124 100 -166c0 -65 -79 -130 -155 -130c-14 0 -66 17 -100 32c-30 19 -39 43 -39 105c0 88 20 150 59 187c-83 87 -142 201 -142 281c0 5 8 17 25 37c126 22 135 23 164 23c70 0 79 -3 237 -63
c0 -28 -8 -42 -92 -129zM385 572c-26 15 -64 22 -113 22c-33 0 -67 -8 -102 -24c0 -48 20 -93 71 -156l80 101l7 -7c3 11 10 19 19 22l-8 6c18 7 33 19 46 36zM336 144c0 29 -23 65 -68 108c-19 -49 -29 -83 -29 -102c0 -32 16 -78 30 -78c31 0 67 39 67 72z" />
    <glyph glyph-name="nine" unicode="9" horiz-adv-x="524" 
d="M486 457c0 -152 -74 -296 -221 -432c-15 -13 -28 -20 -41 -20c-32 0 -63 19 -63 44c0 8 20 31 59 69l75 72c28 34 73 117 73 137c0 8 -7 12 -22 12c-25 -7 -27 -7 -29 -7c-12 0 -143 58 -181 150c-9 24 -14 56 -14 96c0 78 15 87 93 127c10 -3 14 -4 17 -4
c6 2 22 9 28 13h-2c149 9 228 -80 228 -257zM399 498c0 -3 0 -5 -1 -5c-31 133 -37 146 -95 146c-52 0 -86 -39 -86 -100c0 -57 63 -132 157 -186l8 7c11 78 17 124 17 138z" />
    <glyph glyph-name="colon" unicode=":" horiz-adv-x="215" 
d="M164 452c0 -20 -38 -41 -76 -41c-21 0 -66 33 -66 52c0 13 27 31 80 52c19 -1 62 -43 62 -63zM184 72c0 -27 -31 -61 -56 -61c-43 0 -106 16 -106 32s52 61 80 72c31 -2 82 -28 82 -43z" />
    <glyph glyph-name="semicolon" unicode=";" horiz-adv-x="253" 
d="M204 472c0 -25 -50 -71 -76 -71c-21 0 -56 39 -56 62c0 15 23 33 70 52c24 -1 62 -25 62 -43zM211 136c0 -14 -8 -30 -23 -49c-51 -62 -54 -66 -72 -110c-25 -58 -26 -61 -44 -69c-3 0 -5 0 -37 21c-3 10 -5 25 -5 44c0 63 9 88 42 146c32 57 41 63 81 63
c28 0 58 -23 58 -46z" />
    <glyph glyph-name="less" unicode="&#x3c;" horiz-adv-x="581" 
d="M575 49c0 -14 -21 -31 -36 -31c-13 0 -175 64 -286 111c-59 25 -186 146 -186 193c0 12 117 109 231 184c109 109 123 123 133 123c28 0 62 -24 62 -44c0 -31 -80 -93 -320 -278c0 -43 83 -116 175 -158l126 -44c67 -24 101 -43 101 -56z" />
    <glyph glyph-name="equal" unicode="=" horiz-adv-x="652" 
d="M623 451c0 -12 -7 -22 -22 -30c-21 -8 -296 -29 -318 -29c-133 0 -199 20 -199 61c0 7 31 22 39 22c14 0 34 -3 61 -9c31 -6 107 -12 130 -12c28 0 70 6 125 17c56 11 98 17 127 17c1 0 9 -1 22 -3l7 -7c19 -6 28 -15 28 -27zM623 261c0 -28 -13 -32 -105 -39l-92 -7
c-120 -22 -126 -23 -143 -23c-133 0 -199 20 -199 61c0 7 31 22 39 22c14 0 34 -3 61 -9c31 -6 107 -12 130 -12c29 0 71 7 126 22s97 22 126 22c1 0 9 -1 22 -3l7 -7c19 -6 28 -15 28 -27z" />
    <glyph glyph-name="greater" unicode="&#x3e;" horiz-adv-x="563" 
d="M544 322c0 -12 -15 -26 -244 -236c-51 -73 -61 -82 -82 -82c-18 0 -58 23 -58 52c0 12 42 58 125 139s125 124 125 130c0 2 -11 9 -32 22c-157 95 -280 241 -280 284c0 17 13 26 38 26c41 0 46 -7 93 -97c60 -85 115 -132 205 -177c90 -24 110 -36 110 -61z" />
    <glyph glyph-name="question" unicode="?" horiz-adv-x="523" 
d="M489 505c0 -88 -134 -180 -260 -186v-14c10 -45 21 -108 21 -125c0 -18 -16 -34 -34 -34c-34 0 -67 36 -70 76l-4 62c-13 40 -22 66 -22 75c0 14 16 28 31 28c7 0 28 -3 42 -4c23 0 52 11 85 32c37 23 62 35 76 37l4 -2l-1 -5c24 46 36 74 36 84c0 52 -89 131 -188 131
c-8 0 -12 -2 -68 -24c-16 0 -45 31 -45 46c0 22 44 43 88 43c105 0 164 -27 239 -105c47 -48 70 -86 70 -115zM335 46c0 -27 -21 -41 -61 -41c-29 0 -69 22 -69 46c0 18 35 36 69 36c33 0 61 -19 61 -41z" />
    <glyph glyph-name="at" unicode="@" horiz-adv-x="854" 
d="M801 259c0 -72 -40 -181 -98 -220c-23 -15 -40 -23 -49 -23c-87 0 -135 6 -197 131c-55 -27 -81 -35 -101 -35c-94 0 -158 61 -158 150c0 84 119 162 177 167h57c62 0 131 -49 131 -96l-20 -13l-7 -113c0 -50 38 -122 75 -122c46 0 100 89 100 177c0 60 -19 138 -56 234
c-17 45 -93 92 -147 92c-173 0 -369 -178 -369 -336c0 -106 46 -150 272 -282v-20l-8 7l-2 -10h-25c-2 0 -3 0 -58 25c-17 4 -27 7 -30 9l-24 20l-104 68c-79 52 -118 118 -118 198c0 139 53 196 170 277c89 70 122 89 198 89c3 5 8 7 13 7l5 -1v-5h72c9 0 12 -1 44 -15
c8 4 8 4 9 4c20 0 83 -30 115 -54c69 -52 133 -201 133 -310zM446 340c0 10 -2 19 -6 26c-81 -4 -146 -62 -146 -130c0 -39 13 -58 40 -58c52 0 112 93 112 162z" />
    <glyph glyph-name="A" unicode="A" horiz-adv-x="597" 
d="M552 351c-23 -19 -37 -28 -41 -28l-7 4c-12 -2 -26 -11 -41 -27l46 -114c22 -56 33 -92 33 -108c0 -17 -14 -26 -42 -26c-5 0 -13 4 -22 11c-11 40 -16 51 -86 212c-73 -30 -83 -34 -122 -34c-11 0 -23 6 -35 17c-11 -21 -25 -54 -43 -98c-28 -123 -43 -163 -66 -163
c-15 0 -55 20 -55 33c0 74 32 148 171 443l44 121c17 47 36 86 57 116c40 0 74 -19 74 -40c-8 -100 -9 -110 -9 -119c0 -72 12 -135 37 -190c8 2 78 10 79 10c6 0 15 -2 26 -5zM366 338c0 23 0 24 -35 123c-16 -33 -39 -82 -69 -148c23 5 58 13 104 25z" />
    <glyph glyph-name="B" unicode="B" horiz-adv-x="618" 
d="M589 102c0 -53 -37 -78 -159 -157c-32 -36 -68 -51 -119 -55c-72 0 -96 10 -96 39c0 15 11 27 25 27c38 -17 39 -17 48 -17c5 2 20 12 35 21c1 -2 4 -3 7 -4l2 2l-2 3l3 2c46 12 170 129 170 167c0 63 -55 109 -202 167c-71 27 -111 44 -122 51
c-13 -91 -16 -119 -16 -148c0 -1 13 -129 14 -137c0 -4 -4 -12 -12 -24c-20 9 -32 13 -35 13c-1 0 -2 -1 -8 -7c-26 0 -52 105 -52 208c0 37 9 92 26 164s26 127 26 164c-16 16 -24 30 -24 42c0 55 78 103 225 103c3 0 6 -2 7 -7c72 -1 156 -46 156 -110
c0 -67 -80 -139 -241 -218c12 -9 50 -25 115 -49c118 -43 229 -150 229 -240zM400 632c-34 12 -59 18 -74 18c-27 0 -60 -5 -101 -15c0 -52 -1 -55 -11 -97c-9 -35 -13 -62 -13 -80c111 45 177 103 199 174z" />
    <glyph glyph-name="C" unicode="C" horiz-adv-x="485" 
d="M478 30c-3 0 -3 0 -12 -4l-3 1l2 4l-4 2c-5 -1 -9 -4 -12 -11l-7 7l-6 -7c-13 5 -32 7 -55 7c-1 2 -11 7 -28 16c-131 53 -149 61 -174 101c-90 52 -157 157 -157 247c0 113 73 180 213 244l3 -1l-1 -4l3 -2c5 0 6 0 6 9c4 2 17 6 39 12l6 -7c3 6 34 17 48 17
c3 0 4 0 52 -14c8 4 8 4 9 4c26 0 75 -35 75 -57c0 -15 -8 -22 -24 -22c-47 19 -49 19 -67 19c-5 3 -9 5 -14 5c-4 0 -6 -2 -6 -6c-108 0 -250 -122 -250 -219c0 -78 54 -163 153 -235c11 -8 49 -26 114 -53c58 -25 90 -42 97 -53z" />
    <glyph glyph-name="D" unicode="D" horiz-adv-x="556" 
d="M509 329c0 -141 -233 -335 -373 -335c-7 0 -14 3 -21 9l-19 17v12l-14 -3c1 9 1 11 38 55c17 -11 28 -17 33 -17c205 117 273 184 273 291c0 117 -88 226 -229 285l-4 -6c3 -15 4 -26 4 -31s-3 -13 -8 -26c-39 -101 -58 -235 -58 -443c0 -15 -5 -22 -15 -22
c-49 0 -73 45 -73 136c0 142 6 168 49 351l-2 3l-4 -7c-17 29 -19 33 -19 51c0 42 31 63 92 63c28 0 109 -29 131 -47c3 -5 9 -13 18 -22c79 -48 109 -75 152 -151c33 -57 49 -111 49 -163z" />
    <glyph glyph-name="E" unicode="E" horiz-adv-x="594" 
d="M637 659c-13 0 -20 -5 -21 -14c-3 5 -6 7 -11 7c-34 -10 -37 -11 -40 -11c-1 0 -4 0 -15 4c-18 -6 -39 -11 -41 -11s-3 0 -14 4c-12 -8 -25 -17 -26 -17c-2 4 -2 4 -5 6c-13 -8 -31 -18 -54 -30c-112 -32 -145 -44 -178 -61c9 -14 14 -22 14 -24c0 -15 -11 -22 -34 -22
c-8 0 -20 3 -35 8c-15 6 -26 9 -34 9c-14 0 -59 -113 -59 -145c7 -2 20 -3 37 -3c77 0 99 3 187 21c2 0 14 -5 37 -14c0 -7 0 -11 -4 -29c-53 -26 -199 -63 -256 -63c-3 0 -10 1 -22 4c-2 -27 -3 -39 -3 -49c0 -73 24 -110 88 -137c18 -7 32 -11 42 -11h73c14 0 40 7 78 21
l6 -6l7 3c8 -1 22 -19 22 -28c0 -27 -44 -51 -91 -51h-109c-58 0 -161 75 -183 132c-15 38 -22 72 -22 103c0 69 0 69 79 292c13 35 27 53 41 53c21 -5 30 -7 35 -7c162 50 319 93 349 93h162v-27z" />
    <glyph glyph-name="F" unicode="F" horiz-adv-x="469" 
d="M482 642c-10 -10 -17 -15 -22 -15s-14 4 -25 12c-12 9 -13 9 -85 15c-38 0 -100 -12 -185 -35c-36 -117 -54 -195 -54 -234c0 -13 4 -19 12 -19c6 1 26 5 34 6c29 0 71 6 127 19c57 13 99 19 128 19c19 -2 31 -3 38 -3c4 -6 4 -11 4 -27c-102 -32 -106 -34 -114 -44
c-175 -49 -180 -49 -210 -49c-7 0 -19 1 -28 3c-5 -16 -17 -105 -17 -130c0 -19 1 -58 5 -147c-9 -3 -22 -5 -39 -5c-11 0 -19 2 -25 6c-24 59 -28 82 -28 158c1 8 12 150 12 151c-4 18 -6 28 -6 29c20 54 21 55 39 201c10 76 18 121 24 134c9 17 70 29 116 29
c18 3 71 14 72 14c16 -4 26 -7 29 -7l3 1l-2 5h6l-3 -5l47 5c3 0 3 0 15 -6l10 7c25 -2 38 -8 40 -17l5 -4l8 4c25 0 48 -24 69 -71z" />
    <glyph glyph-name="G" unicode="G" horiz-adv-x="605" 
d="M588 629v-19c-13 -7 -23 -11 -30 -11c-2 0 -9 3 -20 7c-43 0 -56 -5 -175 -50c-170 -56 -263 -139 -263 -236c0 -116 192 -231 347 -239c22 40 33 108 33 205c0 26 7 39 20 39c4 0 6 -2 7 -6c35 -3 53 -27 53 -72c0 -38 -20 -212 -25 -223c-8 -15 -22 -22 -42 -22
c-27 0 -216 62 -279 97c-57 31 -104 72 -141 122c-11 15 -26 31 -44 46c-1 10 -8 84 -8 85c0 127 175 267 382 303c52 18 88 27 107 27c45 0 78 -21 78 -53z" />
    <glyph glyph-name="H" unicode="H" horiz-adv-x="609" 
d="M564 608c0 -34 -5 -85 -16 -153c-12 -84 -13 -85 -21 -319c0 -11 2 -31 3 -46c0 -7 -3 -18 -10 -31l-13 -12c-12 13 -27 20 -46 21c-14 35 -21 83 -21 144c0 1 3 116 4 131c-52 -5 -96 -7 -131 -7c-16 0 -51 2 -104 7c-10 -15 -16 -50 -18 -104c0 6 0 6 1 9v-122
c0 -69 -6 -96 -28 -96c-11 0 -14 1 -57 21c-9 25 -13 62 -13 110c0 11 1 38 5 94c-4 19 -4 24 -4 25c5 34 7 53 7 74c-41 15 -61 29 -61 44c0 17 12 31 26 31c5 -1 18 -2 40 -4c2 18 3 53 3 106c0 92 7 130 45 130c37 0 64 -17 64 -42c-8 -113 -9 -121 -9 -133v-68
c25 -6 62 -12 112 -17c51 -5 88 -10 112 -15l8 -9c8 9 14 62 17 157c3 87 15 131 34 131c71 -31 71 -32 71 -57z" />
    <glyph glyph-name="I" unicode="I" horiz-adv-x="245" 
d="M208 608c0 -4 -2 -7 -6 -8c-6 -66 -25 -192 -58 -379c-9 -49 -13 -89 -13 -118c0 -25 3 -48 8 -69c-15 -7 -19 -7 -51 -7c-9 12 -21 20 -34 25c-13 49 -19 79 -19 92c0 41 5 87 14 138l25 136c7 22 14 55 22 100l4 68c4 68 12 86 44 86c33 0 64 -31 64 -64z" />
    <glyph glyph-name="J" unicode="J" horiz-adv-x="484" 
d="M423 633c-11 -87 -15 -235 -15 -617c0 -98 -1 -101 -15 -131c0 -70 -22 -105 -98 -142c-44 -21 -86 -32 -125 -32c-24 0 -52 7 -85 22c-5 13 -14 24 -29 34v26h32c-4 0 -5 0 -5 -1c0 -5 53 -26 67 -26c27 0 92 22 112 38c49 41 70 188 70 499c-4 41 -5 62 -5 70v-3
c1 15 2 65 2 84s0 31 -2 36c11 175 14 193 39 193c17 0 57 -32 57 -50z" />
    <glyph glyph-name="K" unicode="K" horiz-adv-x="444" 
d="M476 633c0 -17 -72 -88 -217 -215l-14 -2c-86 -97 -105 -122 -105 -170c0 -79 134 -152 242 -152c3 0 3 0 35 -8v-23l-16 -4l-4 2l2 3l-3 2c-7 -5 -14 -9 -20 -15l-52 -1l2 5l-6 -1l-3 -5c-4 0 -6 2 -7 7l-7 -7c-13 9 -32 14 -57 14c-26 0 -134 70 -163 103
c-3 -14 -5 -28 -5 -43c14 -66 14 -69 14 -82l3 1l3 -5c-3 -13 -22 -33 -32 -33c-12 0 -14 1 -38 24l-7 -7c-18 16 -36 93 -36 150c0 92 6 125 53 382c8 79 13 100 35 100c36 0 74 -26 74 -55c0 -27 -13 -95 -39 -206c3 3 45 43 129 119l13 2l158 163c3 3 11 5 24 5
c17 0 44 -30 44 -48z" />
    <glyph glyph-name="L" unicode="L" horiz-adv-x="518" 
d="M520 59c-22 -22 -72 -33 -149 -33l-132 1l-5 -5c-53 0 -65 0 -106 11l-4 9l-5 -7c-57 18 -109 77 -109 128c0 5 2 8 6 11v-1c-3 55 6 108 18 111l8 -3c5 66 86 295 123 350c8 12 21 18 40 18c16 0 62 -29 62 -44c0 -5 -17 -38 -50 -98c-40 -73 -53 -115 -99 -303
c-14 -35 -16 -42 -16 -46c0 -13 17 -49 64 -49l14 -12c24 -1 99 -4 100 -4c18 0 42 1 91 3c25 -4 62 -10 63 -10c8 0 20 1 43 3c20 0 34 -6 43 -18v-12z" />
    <glyph glyph-name="M" unicode="M" horiz-adv-x="676" 
d="M637 619c0 -17 -3 -36 -8 -59c-22 -94 -44 -422 -44 -460c0 -37 9 -67 28 -89c-4 -1 -8 -2 -12 -2c-18 0 -73 34 -78 48c-13 35 -20 98 -20 191c0 17 1 29 9 191v28c-105 -100 -136 -138 -136 -178c0 -11 4 -21 11 -30h-19c-25 0 -38 4 -41 13c-4 -3 -8 -10 -13 -21
c-21 15 -31 27 -31 37c0 4 2 15 5 34c0 34 -55 120 -87 141c-1 -20 -7 -45 -18 -75c-27 -76 -27 -77 -46 -221c-8 -61 -19 -109 -32 -144c-3 7 -33 24 -49 25c-10 7 -15 29 -15 66c0 79 36 261 71 359c15 41 22 75 22 103c-14 32 -14 32 -14 33c0 15 41 53 57 53
c14 0 56 -22 61 -32c3 -7 5 -15 5 -23c0 -7 -1 -15 -4 -23c9 -27 24 -58 45 -95l54 -91c12 15 29 34 50 56c64 87 70 91 111 115c39 23 41 24 45 58c2 13 9 24 22 32l18 3c15 0 53 -30 53 -43z" />
    <glyph glyph-name="N" unicode="N" horiz-adv-x="540" 
d="M578 624c0 -6 -1 -7 -34 -30c-29 -34 -81 -192 -156 -475l20 -4c1 -6 3 -9 6 -9c1 1 9 3 22 7c3 -7 4 -12 4 -15c0 -24 -11 -30 -59 -44l-15 -27c-33 7 -34 8 -66 64c-20 35 -34 57 -42 65l-2 13c-30 25 -54 66 -73 122c-23 69 -42 114 -55 133
c-19 -19 -50 -196 -59 -353c5 -6 8 -13 8 -20c0 -5 -1 -8 -13 -44h-30c-2 5 -8 11 -17 16c-22 14 -29 29 -29 66c0 146 37 406 78 451c0 54 16 81 48 81c23 0 52 -32 52 -57c-3 -10 -5 -18 -5 -20c0 -46 125 -314 157 -365l7 9c19 105 114 438 144 469c12 13 23 19 33 19
c29 0 76 -28 76 -52z" />
    <glyph glyph-name="O" unicode="O" horiz-adv-x="685" 
d="M640 358c0 -161 -179 -351 -295 -351l-3 2l2 3l-3 2c-11 -7 -19 -11 -24 -11c-81 0 -144 20 -187 60c-42 38 -83 135 -83 211l4 4c-3 6 -5 13 -5 21c0 61 62 215 102 254c73 68 120 104 142 108l3 -2l-3 -3l3 -2c19 5 52 14 54 14c4 0 10 -4 19 -11s15 -10 19 -10l22 4
c38 0 139 -69 184 -137c33 -49 49 -101 49 -156zM547 372c0 119 -98 244 -199 244c-35 0 -59 -5 -70 -15c27 -13 41 -28 41 -43c0 -13 -16 -28 -29 -28c-1 0 -1 0 -9 4c-63 0 -141 -138 -141 -288c0 -102 58 -177 141 -177c120 0 266 186 266 303z" />
    <glyph glyph-name="P" unicode="P" horiz-adv-x="517" 
d="M498 444c0 -40 -24 -78 -73 -115c-25 -25 -40 -37 -45 -37c-9 0 -101 -37 -114 -45l2 -2c-5 -7 -38 -15 -50 -15c-6 0 -11 4 -14 11c-5 -7 -11 -10 -17 -11l-3 2l1 3l-3 2c-1 -1 -8 -3 -9 -3c-6 0 -12 6 -17 17l-3 -7c-5 1 -17 9 -34 24l5 10c8 0 41 4 97 12c3 6 6 9 9 9
c10 -7 11 -7 12 -7c3 0 6 2 18 14c2 -2 4 -3 7 -3s3 0 3 12c6 2 9 5 38 36c4 0 7 -1 8 -4c1 5 17 23 47 54s45 55 45 72c0 64 -64 144 -132 165c-29 9 -61 13 -96 13c-49 0 -90 -19 -122 -56c-11 -13 -19 -20 -22 -20c-12 0 -40 28 -40 41c0 56 81 102 156 102
c11 0 21 -2 79 -12l-4 -3c200 -103 271 -171 271 -259zM172 537c0 -21 -15 -71 -45 -152s-45 -135 -45 -164c14 -26 21 -48 21 -67c0 -77 -24 -146 -54 -153c-3 -1 -7 -3 -12 -7c-34 3 -45 49 -45 177l5 5v13l-5 -12l-1 5c0 68 11 128 42 230c18 128 34 167 67 167
c27 -2 72 -27 72 -42z" />
    <glyph glyph-name="Q" unicode="Q" horiz-adv-x="779" 
d="M747 26l-8 2l-5 -7c-11 0 -27 4 -48 12s-37 12 -48 12c-63 0 -172 -75 -191 -132c-10 -37 -11 -39 -35 -39c-25 0 -51 25 -51 50c0 18 17 45 51 81c-60 -5 -106 -7 -139 -7c-118 0 -231 112 -231 239c0 82 80 283 147 321c7 30 88 96 175 96c22 0 39 -3 52 -8l43 -18h41
c119 0 230 -129 230 -306c0 -51 -7 -62 -57 -142c-26 -44 -32 -54 -49 -68c76 -31 93 -39 123 -75v-11zM655 362c0 124 -65 217 -154 217c-7 -3 -19 -8 -22 -10c-7 0 -19 1 -28 3c-7 0 -13 -4 -20 -13l-18 16l1 17c0 4 -5 5 -20 5c-118 0 -273 -228 -273 -379
c0 -108 58 -169 159 -169c4 0 14 2 41 7c175 0 334 147 334 306z" />
    <glyph glyph-name="R" unicode="R" horiz-adv-x="531" 
d="M522 60l-12 -15c-11 5 -21 7 -30 7l-20 -4c-35 0 -147 41 -201 73c-11 6 -12 7 -135 112c-9 -187 -15 -233 -34 -233c-2 0 -6 2 -13 7c-7 -7 -7 -7 -9 -7c-11 0 -39 62 -39 77v106c27 228 30 261 30 414c0 81 31 109 121 109c63 -4 92 -5 105 -5l42 6c40 0 93 -18 93 -58
c31 -81 33 -87 33 -96c0 -65 -68 -119 -223 -181c-52 -21 -78 -34 -78 -41c0 -35 29 -71 86 -110c63 -35 122 -68 284 -161zM374 567c0 44 -57 91 -109 91c-85 0 -132 -26 -140 -78c21 -6 32 -22 32 -49l-4 -52c3 -49 3 -51 3 -74h22c34 20 60 32 79 35l12 9l5 -7l2 11
c65 47 98 85 98 114z" />
    <glyph glyph-name="S" unicode="S" horiz-adv-x="378" 
d="M337 592c-11 -7 -23 -10 -36 -10c-38 40 -43 44 -92 44c-31 0 -53 -32 -53 -77l4 -72c8 -15 16 -39 24 -72c9 -33 17 -57 25 -72c77 -143 115 -222 115 -239c0 -49 -94 -94 -178 -94c-17 0 -70 16 -81 24c-7 6 -8 8 -21 40c18 4 19 4 20 4c51 -15 60 -17 66 -17
c54 0 108 29 108 58c0 15 -14 50 -43 107c-95 185 -121 265 -121 350c0 57 29 111 68 111l5 -1v-5l4 5l-2 4c16 0 63 4 70 4c11 0 84 -30 94 -39c16 -15 24 -32 24 -53z" />
    <glyph glyph-name="T" unicode="T" horiz-adv-x="565" 
d="M605 589c0 -10 -14 -22 -26 -22c-1 0 -93 9 -99 10h-58l-9 -6c-18 -71 -32 -163 -42 -275l-25 -278c-9 -7 -16 -11 -19 -11c-19 0 -32 6 -37 17l-6 -6c-1 7 -8 12 -21 17l-5 39c0 63 11 179 33 347c11 81 16 133 16 156c-18 -8 -47 -13 -86 -14s-67 -5 -85 -13
c-11 6 -13 7 -14 7c-10 0 -24 -4 -41 -12s-31 -12 -41 -12c-2 0 -19 5 -52 14c-10 9 -15 28 -15 57c16 17 56 27 120 31c42 0 87 2 182 18c12 -5 17 -7 19 -7c5 0 5 0 55 24c15 0 40 -6 75 -19c36 -13 63 -19 81 -19c1 0 2 0 11 7c2 -1 17 -8 22 -10l7 3
c16 -11 21 -14 27 -14c8 4 8 4 9 4c9 0 24 -20 24 -33z" />
    <glyph glyph-name="U" unicode="U" horiz-adv-x="651" 
d="M592 344c0 -24 -13 -70 -40 -137c-46 -116 -105 -176 -177 -180c-17 -13 -44 -19 -79 -19c-31 0 -36 3 -113 43c-83 40 -135 151 -135 273c0 75 26 222 52 261c3 5 34 40 45 40c20 0 61 -19 64 -36c-32 -44 -69 -199 -69 -277c0 -134 25 -162 67 -201
c29 -27 31 -28 89 -28c1 0 2 0 14 7c76 0 171 143 184 269c11 111 17 195 17 254c0 10 4 15 11 15l3 -1l-3 -4l3 -1c7 0 13 2 20 6c7 -8 13 -12 18 -12l5 2l24 -56v-218z" />
    <glyph glyph-name="V" unicode="V" horiz-adv-x="564" 
d="M535 640c0 -31 -13 -59 -289 -620c-9 -8 -21 -12 -36 -12c-44 0 -57 8 -93 113c-17 49 -38 123 -61 221c-33 139 -33 139 -66 215c0 20 18 35 40 35c59 0 95 -97 108 -290c11 -21 22 -53 33 -98c11 -44 22 -76 33 -96c21 70 21 71 253 565c5 4 12 6 21 6
c39 0 57 -22 57 -39z" />
    <glyph glyph-name="W" unicode="W" horiz-adv-x="646" 
d="M677 581c0 -16 -13 -52 -39 -109c-50 -95 -51 -98 -61 -153c-11 -73 -12 -73 -64 -167c-23 -40 -35 -69 -36 -86l-13 -15c-5 8 -15 13 -29 14c-12 12 -18 27 -18 44c0 42 167 520 195 520c29 0 65 -26 65 -48zM424 35c-15 -21 -36 -32 -63 -32c-24 0 -74 52 -91 111
c0 4 -9 40 -26 111h-6c-33 -42 -54 -76 -63 -101c-10 -102 -13 -104 -38 -104c-59 0 -103 397 -103 568c0 19 19 34 33 34c56 0 77 -59 79 -222c1 -67 5 -107 10 -121c16 19 87 179 105 246c5 12 13 18 26 18c46 0 69 -31 69 -94l-10 -11c-3 -63 -5 -117 -7 -191
c0 -94 11 -156 33 -186c7 7 12 10 16 10c15 0 19 -4 36 -36z" />
    <glyph glyph-name="X" unicode="X" horiz-adv-x="434" 
d="M465 575c0 -19 -27 -59 -41 -60l-10 3c-24 -15 -199 -229 -199 -241c0 -23 59 -170 77 -193c15 9 24 13 26 13c15 0 27 -19 27 -36c0 -30 -12 -39 -55 -39c-31 0 -77 51 -136 154c-72 -83 -94 -119 -94 -173c0 -3 -5 -5 -14 -5c-28 0 -58 23 -58 44c0 60 22 107 94 213
c22 32 33 53 33 62c0 14 -4 38 -13 72c-19 76 -29 156 -29 240c0 50 11 75 33 75c27 0 70 -32 70 -59c-4 -73 -5 -105 -5 -120c0 -45 5 -79 15 -103c143 167 187 210 219 210c5 0 10 -4 15 -13c24 -6 45 -27 45 -44z" />
    <glyph glyph-name="Y" unicode="Y" horiz-adv-x="437" 
d="M409 589c0 -34 -20 -100 -60 -199l-85 -207c-10 -37 -26 -93 -47 -168h-20c-13 0 -15 2 -15 7l-4 3l-3 -2l2 -3l-2 -2c-15 2 -30 16 -30 29c0 85 8 112 32 166c7 15 10 27 10 36c-127 177 -127 178 -166 309c-13 44 -19 71 -19 81c0 16 20 29 43 29c27 0 46 -13 57 -40
c23 -114 55 -199 110 -295c16 29 33 77 51 146c30 115 52 162 77 162c10 0 34 -8 44 -18c17 -1 25 -13 25 -34z" />
    <glyph glyph-name="Z" unicode="Z" horiz-adv-x="611" 
d="M602 34c0 -17 -33 -26 -100 -26c-11 0 -44 2 -122 7l-6 -6l-88 -1c-1 0 -36 -8 -41 -10c-133 0 -227 40 -227 96c0 34 121 177 194 233c119 91 182 159 191 204c-20 13 -61 20 -124 20c-17 -5 -23 -7 -26 -7c-5 0 -12 1 -17 3c-15 0 -37 -4 -66 -12s-51 -12 -66 -12
c-27 0 -58 28 -58 53c0 32 94 54 228 54c41 0 88 -9 139 -26c64 -21 96 -48 96 -81c0 -53 -31 -88 -227 -262c-74 -66 -128 -126 -161 -179c12 -8 39 -12 80 -12c64 4 172 10 173 10c2 -2 9 -7 10 -7c5 0 9 2 13 6h73c3 1 64 8 65 8c28 0 67 -31 67 -53z" />
    <glyph glyph-name="bracketleft" unicode="[" horiz-adv-x="353" 
d="M327 50c0 -28 -16 -42 -48 -42h-115c-59 0 -132 24 -132 57l13 80c-2 35 0 81 8 151c7 51 10 90 10 116c-2 75 -3 170 -3 223c0 18 26 33 56 33c1 -1 8 -2 19 -4c45 21 80 31 107 31c29 0 44 -12 44 -36c0 -11 -20 -22 -60 -34c-42 -13 -65 -23 -68 -31
c0 -160 -2 -188 -13 -241c-7 -36 -10 -63 -10 -82c2 -17 9 -72 14 -100c0 -9 -6 -35 -17 -78c9 -8 34 -12 75 -12c19 0 79 2 79 3h-2c29 0 43 -11 43 -34z" />
    <glyph glyph-name="backslash" unicode="\" horiz-adv-x="158" 
d="M120 34c-12 -7 -16 -7 -47 -7c-17 12 -33 20 -49 25c-89 99 -121 165 -229 466l-64 132c0 15 7 22 22 22c32 0 86 -34 101 -64l-1 -8c34 -69 88 -196 163 -379c34 -83 69 -146 104 -187z" />
    <glyph glyph-name="bracketright" unicode="]" horiz-adv-x="339" 
d="M302 622c0 -14 -4 -35 -11 -62s-11 -47 -11 -60c0 -16 -3 -35 -8 -57c-21 -86 -28 -127 -28 -245c0 -15 3 -38 8 -67c6 -29 9 -52 9 -67c0 -35 -51 -53 -154 -53c-9 0 -30 3 -62 10l1 12c0 7 -1 12 -8 16c12 29 25 44 39 44c5 0 11 -3 17 -9c6 -5 18 -8 35 -8
c21 0 32 5 32 15c-1 4 -6 86 -6 87c0 36 7 89 20 160c14 71 21 125 21 161c24 107 24 110 24 141c-12 0 -33 1 -49 3c-14 -3 -56 -13 -60 -14c-5 0 -12 1 -17 3c-8 -7 -9 -7 -10 -7c-23 0 -46 18 -46 36c0 24 97 40 166 40c65 0 98 -26 98 -79z" />
    <glyph glyph-name="asciicircum" unicode="^" 
d="M523 411c0 -8 -21 -26 -29 -26c-56 0 -121 78 -213 220c-102 -159 -136 -199 -170 -199c-24 0 -62 24 -62 44c25 28 62 71 109 130c27 50 78 135 87 137c-2 0 -2 0 -2 -1h20l-2 4l3 2l7 -5c4 1 9 2 14 2c20 0 39 -14 58 -43c64 -123 104 -182 152 -224
c19 -17 28 -30 28 -41z" />
    <glyph glyph-name="underscore" unicode="_" horiz-adv-x="639" 
d="M590 359c0 -31 -22 -34 -103 -34l-93 -2c-119 -12 -123 -12 -140 -12c-134 0 -201 20 -201 60c0 7 27 22 39 22c14 0 34 -3 61 -9c30 -6 84 -11 129 -11c28 0 70 4 125 12c56 8 98 12 126 12l22 -4l7 -7c19 -6 28 -15 28 -27z" />
    <glyph glyph-name="grave" unicode="`" horiz-adv-x="280" 
d="M230 635h-40c-11 8 -25 21 -43 38c-13 19 -15 21 -127 99v16l44 -10c13 4 21 6 25 6c17 0 127 -109 141 -149z" />
    <glyph glyph-name="a" unicode="a" horiz-adv-x="566" 
d="M529 27c0 -34 -23 -51 -69 -51l-20 14c-47 31 -47 32 -83 88c-90 -56 -111 -68 -161 -68l-30 8c-1 0 -2 0 -19 -4c-80 0 -134 92 -134 173c0 105 44 165 133 181c18 12 50 18 95 18c82 0 158 -32 170 -73c4 -12 7 -30 8 -53c5 -87 45 -201 65 -201c3 2 12 4 13 4
c11 0 32 -26 32 -36zM315 300c-1 2 -2 5 -5 10c-29 6 -64 9 -104 9c-42 0 -99 -62 -99 -107c0 -95 30 -142 89 -142c17 0 64 33 79 50c30 33 30 50 33 170c5 2 7 5 7 10z" />
    <glyph glyph-name="b" unicode="b" horiz-adv-x="529" 
d="M487 262c0 -5 -4 -26 -13 -64c-7 -9 -15 -28 -22 -57c-13 -50 -33 -77 -113 -112c-37 -17 -70 -25 -99 -25c-54 0 -92 14 -92 78c21 -9 32 -13 35 -13c19 0 52 2 76 3c18 0 92 59 110 83c19 27 29 66 29 117c0 29 -39 66 -69 66c-41 0 -80 -41 -119 -122
c-19 -48 -26 -62 -51 -62c-17 0 -67 31 -67 44c0 215 7 266 30 377c0 109 4 128 37 128c41 0 71 -16 71 -38c0 -15 -3 -34 -9 -56c-19 -73 -29 -131 -29 -234l6 -6c62 21 108 31 137 31c63 0 152 -80 152 -138z" />
    <glyph glyph-name="c" unicode="c" horiz-adv-x="400" 
d="M375 355c0 -21 -11 -31 -34 -31c-11 0 -27 3 -48 10s-36 11 -47 11c-56 0 -93 -24 -110 -71c-15 -40 -22 -64 -22 -71c0 -80 76 -140 174 -140l18 6c15 0 38 -19 38 -32c0 -17 -13 -26 -38 -26c-21 -9 -24 -10 -25 -10c-70 0 -173 50 -204 100c-8 17 -22 43 -41 76
c-8 29 -8 30 -8 32c0 117 53 192 163 192c6 1 54 6 55 6c69 0 129 -30 129 -52z" />
    <glyph glyph-name="d" unicode="d" horiz-adv-x="589" 
d="M474 205c-46 -92 -179 -203 -250 -203h-58c-8 0 -76 48 -91 64c-21 22 -31 49 -31 80c0 65 81 208 135 208c30 30 99 52 106 52l3 -2l-2 -4l49 6c41 0 83 -19 91 -41c40 94 41 120 41 243c0 38 -2 61 -5 70c5 0 22 2 53 5c19 0 32 -20 39 -61c-2 -6 -3 -20 -3 -41
c0 -25 1 -66 3 -79c0 -91 -26 -189 -80 -297zM417 311c0 3 -1 8 -4 15c-5 -2 -10 -3 -13 -3s-17 5 -57 21c-23 0 -107 -35 -152 -87c-32 -36 -48 -74 -48 -115c0 -40 22 -68 53 -68c93 0 221 174 221 237z" />
    <glyph glyph-name="e" unicode="e" horiz-adv-x="461" 
d="M427 286c0 -68 -126 -158 -213 -158l-74 11l-2 -6c0 -31 45 -74 111 -84c24 -2 42 -5 150 -21v-30c-12 0 -24 -1 -137 -11c-106 0 -223 95 -223 192c0 72 68 168 138 195c31 12 66 18 104 18c10 -5 16 -7 19 -7c11 4 12 4 14 4c6 0 82 -40 89 -48c16 -13 24 -31 24 -55z
M338 296c0 16 -17 24 -52 24c-54 0 -121 -55 -140 -116c29 0 34 0 70 3c26 0 122 52 122 89z" />
    <glyph glyph-name="f" unicode="f" horiz-adv-x="403" 
d="M432 568c0 -21 -11 -31 -32 -31c-3 0 -17 9 -50 31c-45 0 -127 -129 -155 -238c2 -3 5 -5 9 -5c9 0 35 2 96 7c29 0 77 -29 77 -47c0 -12 -13 -29 -22 -29c-16 0 -49 1 -125 5c-42 0 -61 -9 -61 -48c-8 -103 -15 -209 -15 -222c0 -77 11 -129 31 -186
c0 -30 -18 -55 -40 -55c-10 0 -14 2 -51 29c-26 39 -33 111 -33 317c0 17 4 41 12 72c8 32 12 56 12 73c0 6 -15 15 -45 28c-32 13 -50 27 -54 44c9 10 24 15 44 15c17 -1 39 -3 52 -3c5 0 11 2 16 6c82 223 131 312 221 312c55 0 113 -37 113 -75z" />
    <glyph glyph-name="g" unicode="g" horiz-adv-x="449" 
d="M417 -138c0 -84 -38 -115 -141 -115c-12 0 -53 6 -123 17v33h86c12 0 79 18 84 30c3 9 5 27 5 54c-9 18 -16 48 -21 89s-13 71 -22 90c-28 -32 -64 -48 -108 -48c-75 0 -151 70 -151 139c0 80 45 185 90 212c13 8 46 12 99 12c22 0 88 -30 101 -46c18 -22 20 -34 20 -99
c29 -14 30 -24 37 -189c1 -17 7 -41 16 -72c10 -31 16 -55 17 -71c3 -23 5 -30 11 -36zM263 170c-6 20 -11 38 -11 41c0 2 5 25 11 45c0 23 -45 50 -67 50c-47 0 -101 -105 -101 -169c0 -24 38 -56 65 -56c39 0 103 56 103 89z" />
    <glyph glyph-name="h" unicode="h" horiz-adv-x="448" 
d="M391 158c0 -64 -29 -134 -59 -134c-21 0 -44 19 -44 36c9 19 13 52 13 97c0 76 -28 156 -56 156c-44 0 -79 -102 -106 -305c-1 0 -37 -3 -45 -4c-31 0 -47 16 -47 48c8 132 8 138 8 218c0 68 0 68 12 321c0 89 6 114 44 114c27 0 60 -23 60 -44
c-13 -65 -21 -123 -21 -151c0 -46 2 -150 3 -166c19 21 41 31 66 31c19 0 84 -25 94 -32c35 -24 47 -56 78 -185z" />
    <glyph glyph-name="i" unicode="i" horiz-adv-x="211" 
d="M184 581c0 -20 -11 -30 -33 -30c-32 0 -104 56 -104 83c0 5 2 12 7 20c15 -3 35 -6 60 -8c47 -32 70 -54 70 -65zM139 300c-5 -58 -5 -69 -5 -192c0 -48 -5 -81 -16 -98c-9 -3 -24 -8 -25 -8c-9 0 -14 1 -16 3l-8 14l-3 -10c-27 42 -40 90 -40 144v106c0 72 9 96 43 96
c40 0 70 -24 70 -55z" />
    <glyph glyph-name="j" unicode="j" horiz-adv-x="215" 
d="M139 546c-15 -5 -28 -8 -39 -8c-15 0 -54 34 -54 47c0 8 19 35 25 35c31 0 68 -14 68 -29v-45zM171 -230c0 -18 -20 -35 -42 -35c-19 0 -52 25 -58 43c-12 40 -19 93 -21 160v165c0 108 15 185 46 232c46 0 75 -15 75 -41c0 -16 -5 -40 -16 -73c-10 -32 -15 -57 -15 -74
c0 -208 1 -218 18 -291c9 -37 13 -65 13 -86z" />
    <glyph glyph-name="k" unicode="k" horiz-adv-x="439" 
d="M410 20c-10 -15 -25 -23 -44 -23s-114 58 -247 169v-102c0 -1 7 -22 8 -25c0 -16 -21 -28 -43 -28c-43 0 -64 29 -64 88c0 12 2 39 9 126c0 164 34 437 68 472c50 0 75 -15 75 -48c-38 -191 -46 -233 -46 -328c42 19 89 51 140 98c29 27 48 40 57 40c23 0 56 -19 56 -34
s-32 -47 -97 -95c-65 -47 -97 -76 -97 -86c0 -63 172 -184 209 -200z" />
    <glyph glyph-name="l" unicode="l" horiz-adv-x="236" 
d="M180 618c0 -56 -5 -140 -14 -251s-13 -194 -13 -250c0 -76 -12 -114 -37 -114c-2 0 -20 11 -55 33c-7 17 -10 42 -10 75c0 47 4 118 11 212s11 165 11 212v106c10 17 24 25 43 25c33 0 64 -23 64 -48z" />
    <glyph glyph-name="m" unicode="m" horiz-adv-x="588" 
d="M539 258c0 -113 -19 -198 -56 -253h-12c-28 17 -42 43 -42 77c1 10 14 170 14 171c0 11 -2 21 -6 30c-9 -8 -27 -43 -55 -105c-23 -51 -44 -77 -63 -77c-24 0 -64 44 -64 71c0 8 1 26 5 68c0 25 -5 46 -16 64c-19 -23 -41 -75 -64 -157l-35 -124c-7 -10 -17 -15 -30 -15
c-19 0 -65 34 -65 50c0 4 2 10 9 28l10 159c5 85 17 128 36 128c20 0 39 -7 58 -21c5 1 11 6 17 15c11 15 35 23 71 23c38 0 53 -14 90 -72c35 37 73 55 112 55c57 0 86 -38 86 -115z" />
    <glyph glyph-name="n" unicode="n" horiz-adv-x="502" 
d="M450 217c0 -52 -8 -96 -23 -132c-17 -79 -22 -97 -42 -97c-3 2 -15 10 -22 17l-8 -3c-3 0 -7 4 -10 13s-6 13 -10 13c-2 0 -4 -1 -7 -2c15 59 23 125 23 198c0 55 -7 86 -22 95c-34 0 -103 -65 -128 -117c-16 -35 -38 -130 -46 -168c-5 -19 -16 -29 -31 -29
c-37 0 -74 29 -74 58c0 294 6 297 58 297c25 0 53 -28 54 -55c51 51 73 66 93 66l7 -4c18 12 22 14 24 14c29 0 47 -3 54 -8c5 -6 9 -9 12 -9l8 3c47 0 90 -77 90 -150z" />
    <glyph glyph-name="o" unicode="o" horiz-adv-x="489" 
d="M492 212c0 -110 -139 -208 -234 -208c-87 0 -117 13 -162 60c-38 41 -57 86 -57 135c0 2 4 16 13 42c-2 8 -2 14 -2 16c0 47 70 141 107 141c4 0 10 -4 18 -11s15 -10 20 -10s5 0 49 21c52 0 55 -2 79 -17c1 0 16 5 21 7c63 -32 148 -93 148 -176zM395 224
c0 61 -53 116 -113 116c-17 0 -31 -5 -42 -16l-22 -22c-20 -8 -40 -16 -61 -24c-13 -9 -19 -30 -19 -63c0 -97 25 -146 75 -146c84 0 182 81 182 155z" />
    <glyph glyph-name="p" unicode="p" horiz-adv-x="531" 
d="M490 288c0 -157 -97 -254 -292 -293c-10 -67 -15 -142 -15 -224c0 -7 -6 -18 -17 -32c-44 0 -59 1 -92 31v105c0 28 6 114 19 257c3 45 5 91 7 137c9 73 25 110 50 110c20 -8 42 -17 44 -17c49 47 64 61 160 61c10 -9 15 -13 17 -13c3 0 7 2 11 6l7 -7
c44 -12 101 -81 101 -121zM394 289c0 28 -23 66 -45 66c-66 0 -108 -58 -126 -175c-1 -9 -6 -47 -16 -114c6 0 7 0 15 -7c29 23 48 35 57 35c8 0 75 82 86 98c19 29 29 62 29 97z" />
    <glyph glyph-name="q" unicode="q" horiz-adv-x="565" 
d="M536 -242c0 -19 -15 -29 -45 -29c-47 0 -55 14 -76 118c-3 10 -8 18 -15 24c-11 9 -11 9 -36 198c14 9 21 16 21 22c0 11 -2 22 -6 34c-32 -49 -44 -60 -90 -87c-29 -17 -48 -26 -57 -26h-49c-69 0 -141 81 -141 158c0 6 2 12 12 39c25 109 141 218 231 218
c59 0 94 -17 144 -51c50 -6 66 -13 66 -73l-14 -286c0 -88 5 -138 14 -149c4 6 10 14 18 23l1 -6l-8 -26c0 -12 5 -29 15 -50c10 -22 15 -39 15 -51zM368 306c-19 5 -32 18 -39 39c-12 2 -19 3 -21 3c-61 0 -170 -130 -170 -211c0 -22 21 -46 39 -46c74 0 170 129 191 215z
" />
    <glyph glyph-name="r" unicode="r" horiz-adv-x="392" 
d="M420 386c-100 -6 -225 -125 -250 -237c-25 -125 -32 -141 -56 -141c-34 0 -72 30 -72 56c3 87 3 120 3 126c0 22 -1 36 -3 42c6 75 7 81 34 81c15 0 46 -13 54 -24c18 21 40 43 65 65l9 -4c3 21 6 24 41 45c22 14 36 21 41 21l8 -4c19 13 20 14 21 14c1 -1 6 -7 8 -7l4 2
l-2 3l4 2c57 -1 58 -1 81 -23c1 -6 5 -12 10 -17z" />
    <glyph glyph-name="s" unicode="s" horiz-adv-x="358" 
d="M323 380c0 -18 -9 -27 -28 -27c-5 0 -27 3 -85 13c-29 0 -51 -6 -65 -19c0 -90 7 -118 109 -229c25 -28 38 -48 38 -59c0 -40 -57 -60 -170 -60c-18 0 -69 22 -83 36v12c33 6 56 9 67 9c43 0 80 13 80 29c0 7 -12 24 -36 53c-70 86 -101 153 -101 232c0 27 13 34 84 55
l7 -7c13 7 41 10 85 10c40 0 98 -26 98 -48z" />
    <glyph glyph-name="t" unicode="t" horiz-adv-x="549" 
d="M537 343c0 -10 -16 -22 -28 -22c-13 0 -98 7 -182 13c-12 0 -23 -2 -34 -6c-28 -127 -36 -190 -39 -265c-2 -50 -7 -64 -30 -64c-17 0 -32 5 -43 24l-3 -1l3 -4l-3 -1c-3 0 -8 3 -15 10l-14 14c14 132 19 159 33 226c5 25 8 45 8 62h-29c-73 -6 -136 30 -136 62
c0 15 13 23 38 23c10 -2 62 -6 63 -6h78c1 36 39 252 48 264c6 8 16 12 29 12c23 0 70 -27 70 -50c0 -8 -4 -28 -13 -59l-17 -62c-2 -7 -8 -41 -18 -100c192 -27 234 -36 234 -70z" />
    <glyph glyph-name="u" unicode="u" horiz-adv-x="559" 
d="M505 291c0 -160 -96 -291 -214 -291h-65c-7 0 -28 11 -63 33c-76 49 -114 136 -114 262c0 51 30 77 89 77c11 0 24 -24 24 -30c-6 -34 -13 -69 -13 -74c0 -94 58 -200 111 -200l10 -6c34 0 105 86 120 141c10 37 15 74 15 111c0 8 -1 12 -13 68c17 12 30 18 39 18
c2 -1 10 -4 12 -4l5 7c38 0 57 -37 57 -112z" />
    <glyph glyph-name="v" unicode="v" horiz-adv-x="512" 
d="M478 304c0 -19 -52 -116 -156 -290c-96 0 -105 0 -151 65c-88 126 -101 158 -126 309c15 12 35 18 62 18c33 0 44 -8 52 -36l40 -140c13 -47 35 -91 64 -134c20 23 39 61 58 112l45 123c21 10 41 15 58 16l49 -26z" />
    <glyph glyph-name="w" unicode="w" horiz-adv-x="704" 
d="M667 346c0 -12 -10 -30 -109 -193c-41 -93 -62 -132 -75 -132c-2 0 -2 0 -10 4c-5 -6 -15 -15 -19 -17h-37c-3 0 -17 9 -20 12c-77 37 -77 38 -102 87c-31 -69 -55 -93 -96 -93h-22c-4 8 -15 19 -32 34c-42 37 -57 65 -83 167c-15 59 -23 106 -23 141c0 17 33 33 65 33
c41 0 52 -17 52 -72c0 -77 14 -143 42 -199c57 79 57 80 57 82c-8 27 -17 55 -17 58c0 12 39 28 53 28c0 -3 26 -10 76 -19c21 -3 32 -11 32 -24c0 -5 -6 -14 -19 -27c-12 -13 -18 -21 -18 -26c0 -16 42 -91 63 -114c9 8 17 23 23 46l14 53c5 11 93 182 108 208
c8 4 20 6 37 6c33 0 60 -19 60 -43z" />
    <glyph glyph-name="x" unicode="x" horiz-adv-x="531" 
d="M502 372c0 -11 -5 -19 -15 -26c-50 -13 -56 -14 -129 -88c-45 -45 -68 -74 -68 -86c0 -11 10 -22 112 -127c-7 -15 -16 -22 -25 -22c-64 0 -89 24 -144 99c-94 -116 -108 -133 -111 -133c-26 0 -45 25 -45 60c0 16 16 42 48 79l48 55c0 -13 -2 -20 -7 -20
c-23 0 -132 232 -133 275c21 9 37 14 50 14c30 0 51 -18 64 -53c17 -45 18 -46 90 -140c100 129 129 158 186 158c53 0 79 -15 79 -45z" />
    <glyph glyph-name="y" unicode="y" horiz-adv-x="537" 
d="M493 339c0 -7 -41 -94 -124 -263c-85 -174 -132 -285 -141 -334l-50 -4c0 1 -12 5 -37 12c-3 7 -5 17 -5 29c0 33 15 78 45 136c31 57 47 97 48 120c-114 144 -189 322 -189 352c0 16 27 28 39 28c49 0 69 -25 83 -97c5 -18 84 -164 103 -195l65 153c35 81 61 121 79 121
c38 0 84 -28 84 -58z" />
    <glyph glyph-name="z" unicode="z" horiz-adv-x="514" 
d="M490 43c0 -8 -20 -23 -30 -23c-8 0 -29 2 -68 7c-31 0 -76 -4 -137 -12c-60 -8 -105 -12 -136 -12c-21 0 -76 36 -76 60c0 37 102 138 306 303c-1 3 -3 5 -7 5h-48c-5 0 -8 -2 -8 -5c-72 -17 -132 -26 -181 -26c-36 0 -72 23 -72 46c0 24 161 43 323 43
c75 0 113 -20 113 -60c0 -17 -44 -59 -133 -127c-95 -73 -148 -124 -159 -154c67 0 99 1 258 5c13 0 55 -31 55 -50z" />
    <glyph glyph-name="braceleft" unicode="{" horiz-adv-x="315" 
d="M338 664c0 -19 -19 -34 -43 -34c-3 0 -11 3 -24 7c-46 0 -81 -38 -81 -86c0 -16 3 -39 10 -70c7 -30 11 -53 11 -69c-5 -41 -5 -42 -5 -52c-4 -10 -22 -24 -54 -41c14 -26 21 -48 21 -65c-9 -44 -17 -91 -17 -95c0 -40 16 -55 71 -67c17 -4 25 -10 25 -19
c0 -24 -27 -41 -65 -41c-60 0 -120 66 -120 131c0 11 3 27 10 48c11 33 12 41 10 59c-80 20 -99 25 -99 52c0 14 20 28 59 41c43 15 67 24 70 29l-8 198l4 4c0 67 59 108 156 108c46 0 69 -13 69 -38z" />
    <glyph glyph-name="bar" unicode="|" horiz-adv-x="243" 
d="M174 608c0 -5 -2 -7 -5 -8c0 -307 0 -351 -14 -757l4 -68c-4 -30 -4 -31 -4 -61c-14 -7 -18 -7 -50 -7c-11 12 -24 20 -37 25c-9 29 -14 106 -14 231c0 328 1 336 19 547l-4 132c0 18 18 30 33 30c33 0 72 -34 72 -64z" />
    <glyph glyph-name="braceright" unicode="}" horiz-adv-x="427" 
d="M388 329c0 -13 -28 -40 -43 -41c-2 2 -4 3 -7 3c-23 0 -38 -28 -45 -85c-16 -131 -18 -132 -139 -180c-43 -23 -51 -26 -68 -26c-24 0 -52 22 -52 41c0 14 13 26 39 35c118 28 132 41 138 137c3 49 6 79 9 90c-59 35 -89 73 -89 116c0 27 11 63 32 106c22 43 33 73 33 89
c0 22 -56 52 -92 52l-8 12c13 17 29 26 47 26c68 0 135 -52 135 -109c0 -20 -11 -50 -33 -89c-21 -39 -32 -67 -32 -86c0 -49 20 -53 84 -53c61 0 91 -13 91 -38z" />
    <glyph glyph-name="asciitilde" unicode="~" horiz-adv-x="577" 
d="M522 453c0 -8 -22 -73 -38 -107c-29 -37 -67 -55 -114 -55s-80 15 -138 63c-17 15 -29 22 -34 22c-7 0 -28 -6 -63 -17c-25 -40 -36 -53 -66 -53h-52v43c0 32 39 87 86 97c13 3 34 4 64 4c79 0 88 -4 148 -55c32 -27 54 -41 66 -41c29 0 65 53 79 127c6 0 16 1 32 3
c20 0 30 -10 30 -31z" />
    <glyph glyph-name="exclamdown" unicode="&#xa1;" horiz-adv-x="222" 
d="M166 645c0 -17 -41 -39 -72 -39c-13 0 -41 14 -41 27c0 14 36 48 50 48c23 0 63 -22 63 -36zM163 252c0 -19 -2 -36 -23 -226c-9 -27 -30 -40 -63 -40c-24 0 -51 31 -51 59c24 94 24 95 42 296c17 44 17 45 17 59c9 1 17 7 24 18c40 -20 40 -23 54 -166z" />
    <glyph glyph-name="dieresis" unicode="&#xa8;" horiz-adv-x="414" 
d="M444 752c0 -29 -53 -51 -76 -51c-21 0 -66 23 -66 42c0 18 47 53 70 62c25 -2 72 -35 72 -53zM154 762c0 -25 -50 -71 -76 -71c-21 0 -66 23 -66 42c0 16 52 61 80 72c24 -1 62 -25 62 -43z" />
    <glyph glyph-name="copyright" unicode="&#xa9;" horiz-adv-x="697" 
d="M655 324c0 -178 -135 -313 -314 -313s-314 134 -314 313s136 314 314 314s314 -136 314 -314zM616 321c0 155 -118 273 -273 273s-272 -117 -272 -273s116 -272 272 -272s273 117 273 272zM447 89c-8 -3 -9 -3 -11 -3c1 1 2 1 2 3l-3 2l-9 -8l-5 5l-4 -5
c-11 3 -24 5 -40 5c-116 51 -129 58 -147 85c-65 38 -115 117 -115 180c0 74 61 143 155 178c2 -3 2 -4 4 -6l4 7c2 1 12 4 29 9l4 -5c2 5 24 12 35 12c48 0 99 -25 99 -49c0 -11 -6 -16 -17 -16c-34 13 -35 14 -49 14l-10 4l-5 -5c-77 0 -182 -89 -182 -159
c0 -60 37 -117 112 -171c10 -7 38 -20 83 -39c42 -17 65 -30 70 -38z" />
    <glyph glyph-name="registered" unicode="&#xae;" horiz-adv-x="697" 
d="M655 324c0 -178 -135 -313 -314 -313s-314 134 -314 313s136 314 314 314s314 -136 314 -314zM616 321c0 155 -118 273 -273 273s-272 -117 -272 -273s116 -272 272 -272s273 117 273 272zM510 144l-8 -10c-101 6 -136 25 -248 121c-4 -105 -11 -150 -22 -150l-9 4l-5 -4
c-10 9 -10 10 -25 50v68c0 14 2 33 5 56c11 74 14 112 14 210c0 47 25 71 74 71c29 -2 70 -4 71 -4s19 2 27 4c40 0 60 -12 60 -37c21 -54 22 -56 22 -62c0 -35 -52 -81 -100 -98c-63 -22 -94 -37 -94 -45c0 -38 15 -49 238 -174zM415 470c0 28 -39 59 -70 59
c-55 0 -86 -17 -91 -51c14 -3 21 -14 21 -31v-81l14 -1c43 20 52 25 58 29l3 -4l2 7c42 30 63 54 63 73z" />
    <glyph glyph-name="degree" unicode="&#xb0;" horiz-adv-x="270" 
d="M222 681c0 -61 -22 -75 -108 -75c-67 0 -100 21 -100 64v44c0 31 55 78 89 78c74 0 119 -42 119 -111zM188 705c0 17 -52 44 -79 44c-1 0 -18 -11 -51 -34v-42c27 -19 48 -29 61 -29c38 0 69 27 69 61z" />
    <glyph glyph-name="acute" unicode="&#xb4;" horiz-adv-x="177" 
d="M190 850c-99 -79 -119 -95 -150 -137l-40 -1c0 29 0 30 44 85c50 63 56 68 90 68h56v-15z" />
    <glyph glyph-name="cedilla" unicode="&#xb8;" horiz-adv-x="195" 
d="M143 -112c-24 -5 -40 -8 -48 -8c-64 0 -84 11 -84 45c0 53 24 81 73 85v52h32v-82c-55 0 -76 -11 -76 -34l8 -38c5 -3 10 -5 16 -5c27 6 54 12 58 12h21v-27z" />
    <glyph glyph-name="questiondown" unicode="&#xbf;" horiz-adv-x="426" 
d="M303 657c0 -18 -35 -36 -69 -36c-33 0 -61 19 -61 41c0 27 21 41 61 41c28 0 69 -22 69 -46zM416 26c0 -26 -49 -43 -88 -43c-104 0 -162 27 -238 106c-47 48 -71 86 -71 114c0 89 138 180 260 186v14c-18 82 -21 117 -21 125c0 18 16 34 34 34c33 0 67 -36 70 -74l4 -64
c22 -62 22 -65 22 -75c0 -15 -15 -28 -31 -28l-42 4c-23 0 -52 -11 -85 -32c-37 -23 -62 -35 -76 -37l-4 2l1 5c-24 -46 -36 -74 -36 -84c0 -30 43 -78 88 -106c27 -17 61 -25 100 -25c8 0 12 2 68 24c14 0 45 -31 45 -46z" />
    <glyph glyph-name="Agrave" unicode="&#xc0;" 
d="M533 351c-23 -19 -37 -28 -41 -28l-7 4c-12 -2 -26 -11 -41 -27l46 -114c22 -56 33 -92 33 -108c0 -17 -14 -26 -42 -26c-5 0 -13 4 -22 11c-11 40 -16 51 -86 212c-73 -30 -83 -34 -122 -34c-11 0 -23 6 -35 17c-11 -21 -25 -54 -43 -98c-28 -123 -43 -163 -66 -163
c-15 0 -55 20 -55 33c0 74 32 148 171 443l44 121c17 47 36 86 57 116c40 0 74 -19 74 -40c-8 -100 -9 -110 -9 -119c0 -72 12 -135 37 -190c8 2 78 10 79 10c6 0 15 -2 26 -5zM347 338c0 23 0 24 -35 123c-16 -33 -39 -82 -69 -148c23 5 58 13 104 25zM402 725h-40
c-11 8 -25 21 -43 38c-13 19 -15 21 -127 99v16l44 -10c13 4 21 6 25 6c17 0 127 -109 141 -149z" />
    <glyph glyph-name="Aacute" unicode="&#xc1;" 
d="M533 351c-23 -19 -37 -28 -41 -28l-7 4c-12 -2 -26 -11 -41 -27l46 -114c22 -56 33 -92 33 -108c0 -17 -14 -26 -42 -26c-5 0 -13 4 -22 11c-11 40 -16 51 -86 212c-73 -30 -83 -34 -122 -34c-11 0 -23 6 -35 17c-11 -21 -25 -54 -43 -98c-28 -123 -43 -163 -66 -163
c-15 0 -55 20 -55 33c0 74 32 148 171 443l44 121c17 47 36 86 57 116c40 0 74 -19 74 -40c-8 -100 -9 -110 -9 -119c0 -72 12 -135 37 -190c8 2 78 10 79 10c6 0 15 -2 26 -5zM347 338c0 23 0 24 -35 123c-16 -33 -39 -82 -69 -148c23 5 58 13 104 25zM390 850
c-99 -79 -119 -95 -150 -137l-40 -1c0 29 0 30 44 85c50 63 56 68 90 68h56v-15z" />
    <glyph glyph-name="Acircumflex" unicode="&#xc2;" 
d="M533 351c-23 -19 -37 -28 -41 -28l-7 4c-12 -2 -26 -11 -41 -27l46 -114c22 -56 33 -92 33 -108c0 -17 -14 -26 -42 -26c-5 0 -13 4 -22 11c-11 40 -16 51 -86 212c-73 -30 -83 -34 -122 -34c-11 0 -23 6 -35 17c-11 -21 -25 -54 -43 -98c-28 -123 -43 -163 -66 -163
c-15 0 -55 20 -55 33c0 74 32 148 171 443l44 121c17 47 36 86 57 116c40 0 74 -19 74 -40c-8 -100 -9 -110 -9 -119c0 -72 12 -135 37 -190c8 2 78 10 79 10c6 0 15 -2 26 -5zM347 338c0 23 0 24 -35 123c-16 -33 -39 -82 -69 -148c23 5 58 13 104 25zM449 725l-44 3
c-19 29 -22 35 -79 160c-17 -15 -36 -40 -55 -77l-45 -86h-41c0 45 9 61 141 241h15c10 -47 69 -169 108 -225v-16z" />
    <glyph glyph-name="Atilde" unicode="&#xc3;" 
d="M533 351c-23 -19 -37 -28 -41 -28l-7 4c-12 -2 -26 -11 -41 -27l46 -114c22 -56 33 -92 33 -108c0 -17 -14 -26 -42 -26c-5 0 -13 4 -22 11c-11 40 -16 51 -86 212c-73 -30 -83 -34 -122 -34c-11 0 -23 6 -35 17c-11 -21 -25 -54 -43 -98c-28 -123 -43 -163 -66 -163
c-15 0 -55 20 -55 33c0 74 32 148 171 443l44 121c17 47 36 86 57 116c40 0 74 -19 74 -40c-8 -100 -9 -110 -9 -119c0 -72 12 -135 37 -190c8 2 78 10 79 10c6 0 15 -2 26 -5zM347 338c0 23 0 24 -35 123c-16 -33 -39 -82 -69 -148c23 5 58 13 104 25zM508 851
c0 -15 -26 -70 -40 -87c-14 -16 -35 -24 -64 -24c-34 0 -61 21 -95 68c-12 16 -20 24 -24 24s-47 -26 -51 -30c-33 -52 -34 -52 -38 -52h-35v29c0 38 58 90 100 90c60 0 62 -1 103 -47c24 -26 40 -39 47 -39c23 0 47 40 54 87l23 2c13 0 20 -7 20 -21z" />
    <glyph glyph-name="Adieresis" unicode="&#xc4;" 
d="M533 351c-23 -19 -37 -28 -41 -28l-7 4c-12 -2 -26 -11 -41 -27l46 -114c22 -56 33 -92 33 -108c0 -17 -14 -26 -42 -26c-5 0 -13 4 -22 11c-11 40 -16 51 -86 212c-73 -30 -83 -34 -122 -34c-11 0 -23 6 -35 17c-11 -21 -25 -54 -43 -98c-28 -123 -43 -163 -66 -163
c-15 0 -55 20 -55 33c0 74 32 148 171 443l44 121c17 47 36 86 57 116c40 0 74 -19 74 -40c-8 -100 -9 -110 -9 -119c0 -72 12 -135 37 -190c8 2 78 10 79 10c6 0 15 -2 26 -5zM347 338c0 23 0 24 -35 123c-16 -33 -39 -82 -69 -148c23 5 58 13 104 25zM537 752
c0 -29 -53 -51 -76 -51c-21 0 -66 23 -66 42c0 18 47 53 70 62c25 -2 72 -35 72 -53zM247 762c0 -25 -50 -71 -76 -71c-21 0 -66 23 -66 42c0 16 52 61 80 72c24 -1 62 -25 62 -43z" />
    <glyph glyph-name="Aring" unicode="&#xc5;" 
d="M533 351c-23 -19 -37 -28 -41 -28l-7 4c-12 -2 -26 -11 -41 -27l46 -114c22 -56 33 -92 33 -108c0 -17 -14 -26 -42 -26c-5 0 -13 4 -22 11c-11 40 -16 51 -86 212c-73 -30 -83 -34 -122 -34c-11 0 -23 6 -35 17c-11 -21 -25 -54 -43 -98c-28 -123 -43 -163 -66 -163
c-15 0 -55 20 -55 33c0 74 32 148 171 443l44 121c17 47 36 86 57 116c40 0 74 -19 74 -40c-8 -100 -9 -110 -9 -119c0 -72 12 -135 37 -190c8 2 78 10 79 10c6 0 15 -2 26 -5zM347 338c0 23 0 24 -35 123c-16 -33 -39 -82 -69 -148c23 5 58 13 104 25zM449 761
c0 -61 -22 -75 -108 -75c-67 0 -100 21 -100 64v44c0 31 55 78 89 78c74 0 119 -42 119 -111zM415 785c0 17 -52 44 -79 44c-1 0 -18 -11 -51 -34v-42c27 -19 48 -29 61 -29c38 0 69 27 69 61z" />
    <glyph glyph-name="AE" unicode="&#xc6;" horiz-adv-x="931" 
d="M428 351c-23 -19 -37 -28 -41 -28l-7 4c-12 -2 -26 -11 -41 -27l46 -114c22 -56 33 -92 33 -108c0 -17 -14 -26 -42 -26c-5 0 -13 4 -22 11c-11 40 -16 51 -86 212c-73 -30 -83 -34 -122 -34c-11 0 -23 6 -35 17c-11 -21 -25 -54 -43 -98c-28 -123 -43 -163 -66 -163
c-15 0 -55 20 -55 33c0 74 32 148 171 443l44 121c17 47 36 86 57 116c40 0 74 -19 74 -40c-8 -100 -9 -110 -9 -119c0 -72 12 -135 37 -190c8 2 78 10 79 10c6 0 15 -2 26 -5zM242 338c0 23 0 24 -35 123c-16 -33 -39 -82 -69 -148c23 5 58 13 104 25zM998 659
c-13 0 -20 -5 -21 -14c-3 5 -6 7 -11 7c-34 -10 -37 -11 -40 -11c-1 0 -4 0 -15 4c-18 -6 -39 -11 -41 -11s-3 0 -14 4c-12 -8 -25 -17 -26 -17c-2 4 -2 4 -5 6c-13 -8 -31 -18 -54 -30c-112 -32 -145 -44 -178 -61c9 -14 14 -22 14 -24c0 -15 -11 -22 -34 -22
c-8 0 -20 3 -35 8c-15 6 -26 9 -34 9c-14 0 -59 -113 -59 -145c7 -2 20 -3 37 -3c77 0 99 3 187 21c2 0 14 -5 37 -14c0 -7 0 -11 -4 -29c-53 -26 -199 -63 -256 -63c-3 0 -10 1 -22 4c-2 -27 -3 -39 -3 -49c0 -73 24 -110 88 -137c18 -7 32 -11 42 -11h73c14 0 40 7 78 21
l6 -6l7 3c8 -1 22 -19 22 -28c0 -27 -44 -51 -91 -51h-109c-58 0 -161 75 -183 132c-15 38 -22 72 -22 103c0 69 0 69 79 292c13 35 27 53 41 53c21 -5 30 -7 35 -7c162 50 319 93 349 93h162v-27z" />
    <glyph glyph-name="Ccedilla" unicode="&#xc7;" horiz-adv-x="576" 
d="M617 659c-13 0 -20 -5 -21 -14c-3 5 -6 7 -11 7c-34 -10 -37 -11 -40 -11c-1 0 -4 0 -15 4c-18 -6 -39 -11 -41 -11s-3 0 -14 4c-12 -8 -25 -17 -26 -17c-2 4 -2 4 -5 6c-13 -8 -31 -18 -54 -30c-112 -32 -145 -44 -178 -61c9 -14 14 -22 14 -24c0 -15 -11 -22 -34 -22
c-8 0 -20 3 -35 8c-15 6 -26 9 -34 9c-14 0 -59 -113 -59 -145c7 -2 20 -3 37 -3c77 0 99 3 187 21c2 0 14 -5 37 -14c0 -7 0 -11 -4 -29c-53 -26 -199 -63 -256 -63c-3 0 -10 1 -22 4c-2 -27 -3 -39 -3 -49c0 -73 24 -110 88 -137c18 -7 32 -11 42 -11h73c14 0 40 7 78 21
l6 -6l7 3c8 -1 22 -19 22 -28c0 -27 -44 -51 -91 -51h-109c-58 0 -161 75 -183 132c-15 38 -22 72 -22 103c0 69 0 69 79 292c13 35 27 53 41 53c21 -5 30 -7 35 -7c162 50 319 93 349 93h162v-27zM383 725h-40c-11 8 -25 21 -43 38c-13 19 -15 21 -127 99v16l44 -10
c13 4 21 6 25 6c17 0 127 -109 141 -149z" />
    <glyph glyph-name="Egrave" unicode="&#xc8;" horiz-adv-x="576" 
d="M617 659c-13 0 -20 -5 -21 -14c-3 5 -6 7 -11 7c-34 -10 -37 -11 -40 -11c-1 0 -4 0 -15 4c-18 -6 -39 -11 -41 -11s-3 0 -14 4c-12 -8 -25 -17 -26 -17c-2 4 -2 4 -5 6c-13 -8 -31 -18 -54 -30c-112 -32 -145 -44 -178 -61c9 -14 14 -22 14 -24c0 -15 -11 -22 -34 -22
c-8 0 -20 3 -35 8c-15 6 -26 9 -34 9c-14 0 -59 -113 -59 -145c7 -2 20 -3 37 -3c77 0 99 3 187 21c2 0 14 -5 37 -14c0 -7 0 -11 -4 -29c-53 -26 -199 -63 -256 -63c-3 0 -10 1 -22 4c-2 -27 -3 -39 -3 -49c0 -73 24 -110 88 -137c18 -7 32 -11 42 -11h73c14 0 40 7 78 21
l6 -6l7 3c8 -1 22 -19 22 -28c0 -27 -44 -51 -91 -51h-109c-58 0 -161 75 -183 132c-15 38 -22 72 -22 103c0 69 0 69 79 292c13 35 27 53 41 53c21 -5 30 -7 35 -7c162 50 319 93 349 93h162v-27zM391 850c-99 -79 -119 -95 -150 -137l-40 -1c0 29 0 30 44 85
c50 63 56 68 90 68h56v-15z" />
    <glyph glyph-name="Eacute" unicode="&#xc9;" horiz-adv-x="577" 
d="M618 659c-13 0 -20 -5 -21 -14c-3 5 -6 7 -11 7c-34 -10 -37 -11 -40 -11c-1 0 -4 0 -15 4c-18 -6 -39 -11 -41 -11s-3 0 -14 4c-12 -8 -25 -17 -26 -17c-2 4 -2 4 -5 6c-13 -8 -31 -18 -54 -30c-112 -32 -145 -44 -178 -61c9 -14 14 -22 14 -24c0 -15 -11 -22 -34 -22
c-8 0 -20 3 -35 8c-15 6 -26 9 -34 9c-14 0 -59 -113 -59 -145c7 -2 20 -3 37 -3c77 0 99 3 187 21c2 0 14 -5 37 -14c0 -7 0 -11 -4 -29c-53 -26 -199 -63 -256 -63c-3 0 -10 1 -22 4c-2 -27 -3 -39 -3 -49c0 -73 24 -110 88 -137c18 -7 32 -11 42 -11h73c14 0 40 7 78 21
l6 -6l7 3c8 -1 22 -19 22 -28c0 -27 -44 -51 -91 -51h-109c-58 0 -161 75 -183 132c-15 38 -22 72 -22 103c0 69 0 69 79 292c13 35 27 53 41 53c21 -5 30 -7 35 -7c162 50 319 93 349 93h162v-27zM451 725l-44 3c-19 29 -22 35 -79 160c-17 -15 -36 -40 -55 -77l-45 -86
h-41c0 45 9 61 141 241h15c10 -47 69 -169 108 -225v-16z" />
    <glyph glyph-name="Ecircumflex" unicode="&#xca;" horiz-adv-x="576" 
d="M617 659c-13 0 -20 -5 -21 -14c-3 5 -6 7 -11 7c-34 -10 -37 -11 -40 -11c-1 0 -4 0 -15 4c-18 -6 -39 -11 -41 -11s-3 0 -14 4c-12 -8 -25 -17 -26 -17c-2 4 -2 4 -5 6c-13 -8 -31 -18 -54 -30c-112 -32 -145 -44 -178 -61c9 -14 14 -22 14 -24c0 -15 -11 -22 -34 -22
c-8 0 -20 3 -35 8c-15 6 -26 9 -34 9c-14 0 -59 -113 -59 -145c7 -2 20 -3 37 -3c77 0 99 3 187 21c2 0 14 -5 37 -14c0 -7 0 -11 -4 -29c-53 -26 -199 -63 -256 -63c-3 0 -10 1 -22 4c-2 -27 -3 -39 -3 -49c0 -73 24 -110 88 -137c18 -7 32 -11 42 -11h73c14 0 40 7 78 21
l6 -6l7 3c8 -1 22 -19 22 -28c0 -27 -44 -51 -91 -51h-109c-58 0 -161 75 -183 132c-15 38 -22 72 -22 103c0 69 0 69 79 292c13 35 27 53 41 53c21 -5 30 -7 35 -7c162 50 319 93 349 93h162v-27zM508 752c0 -29 -53 -51 -76 -51c-21 0 -66 23 -66 42c0 18 47 53 70 62
c25 -2 72 -35 72 -53zM218 762c0 -25 -50 -71 -76 -71c-21 0 -66 23 -66 42c0 16 52 61 80 72c24 -1 62 -25 62 -43z" />
    <glyph glyph-name="Edieresis" unicode="&#xcb;" horiz-adv-x="468" 
d="M460 30c-3 0 -3 0 -12 -4l-3 1l2 4l-4 2c-5 -1 -9 -4 -12 -11l-7 7l-6 -7c-13 5 -32 7 -55 7c-1 2 -11 7 -28 16c-131 53 -149 61 -174 101c-90 52 -157 157 -157 247c0 113 73 180 213 244l3 -1l-1 -4l3 -2c5 0 6 0 6 9c4 2 17 6 39 12l6 -7c3 6 34 17 48 17
c3 0 4 0 52 -14c8 4 8 4 9 4c26 0 75 -35 75 -57c0 -15 -8 -22 -24 -22c-47 19 -49 19 -67 19c-5 3 -9 5 -14 5c-4 0 -6 -2 -6 -6c-108 0 -250 -122 -250 -219c0 -78 54 -163 153 -235c11 -8 49 -26 114 -53c58 -25 90 -42 97 -53zM311 -112c-24 -5 -40 -8 -48 -8
c-64 0 -84 11 -84 45c0 53 24 81 73 85v52h32v-82c-55 0 -76 -11 -76 -34l8 -38c5 -3 10 -5 16 -5c27 6 54 12 58 12h21v-27z" />
    <glyph glyph-name="Igrave" unicode="&#xcc;" horiz-adv-x="338" 
d="M307 608c0 -4 -2 -7 -6 -8c-6 -66 -25 -192 -58 -379c-9 -49 -13 -89 -13 -118c0 -25 3 -48 8 -69c-15 -7 -19 -7 -51 -7c-9 12 -21 20 -34 25c-13 49 -19 79 -19 92c0 41 5 87 14 138l25 136c7 22 14 55 22 100l4 68c4 68 12 86 44 86c33 0 64 -31 64 -64zM324 725h-40
c-11 8 -25 21 -43 38c-13 19 -15 21 -127 99v16l44 -10c13 4 21 6 25 6c17 0 127 -109 141 -149z" />
    <glyph glyph-name="Iacute" unicode="&#xcd;" horiz-adv-x="280" 
d="M249 608c0 -4 -2 -7 -6 -8c-6 -66 -25 -192 -58 -379c-9 -49 -13 -89 -13 -118c0 -25 3 -48 8 -69c-15 -7 -19 -7 -51 -7c-9 12 -21 20 -34 25c-13 49 -19 79 -19 92c0 41 5 87 14 138l25 136c7 22 14 55 22 100l4 68c4 68 12 86 44 86c33 0 64 -31 64 -64zM274 850
c-99 -79 -119 -95 -150 -137l-40 -1c0 29 0 30 44 85c50 63 56 68 90 68h56v-15z" />
    <glyph glyph-name="Icircumflex" unicode="&#xce;" horiz-adv-x="347" 
d="M288 608c0 -4 -2 -7 -6 -8c-6 -66 -25 -192 -58 -379c-9 -49 -13 -89 -13 -118c0 -25 3 -48 8 -69c-15 -7 -19 -7 -51 -7c-9 12 -21 20 -34 25c-13 49 -19 79 -19 92c0 41 5 87 14 138l25 136c7 22 14 55 22 100l4 68c4 68 12 86 44 86c33 0 64 -31 64 -64zM372 725
l-44 3c-19 29 -22 35 -79 160c-17 -15 -36 -40 -55 -77l-45 -86h-41c0 45 9 61 141 241h15c10 -47 69 -169 108 -225v-16z" />
    <glyph glyph-name="Idieresis" unicode="&#xcf;" horiz-adv-x="434" 
d="M323 608c0 -4 -2 -7 -6 -8c-6 -66 -25 -192 -58 -379c-9 -49 -13 -89 -13 -118c0 -25 3 -48 8 -69c-15 -7 -19 -7 -51 -7c-9 12 -21 20 -34 25c-13 49 -19 79 -19 92c0 41 5 87 14 138l25 136c7 22 14 55 22 100l4 68c4 68 12 86 44 86c33 0 64 -31 64 -64zM465 752
c0 -29 -53 -51 -76 -51c-21 0 -66 23 -66 42c0 18 47 53 70 62c25 -2 72 -35 72 -53zM175 762c0 -25 -50 -71 -76 -71c-21 0 -66 23 -66 42c0 16 52 61 80 72c24 -1 62 -25 62 -43z" />
    <glyph glyph-name="Ntilde" unicode="&#xd1;" horiz-adv-x="522" 
d="M559 624c0 -6 -1 -7 -34 -30c-29 -34 -81 -192 -156 -475l20 -4c1 -6 3 -9 6 -9c1 1 9 3 22 7c3 -7 4 -12 4 -15c0 -24 -11 -30 -59 -44l-15 -27c-33 7 -34 8 -66 64c-20 35 -34 57 -42 65l-2 13c-30 25 -54 66 -73 122c-23 69 -42 114 -55 133
c-19 -19 -50 -196 -59 -353c5 -6 8 -13 8 -20c0 -5 -1 -8 -13 -44h-30c-2 5 -8 11 -17 16c-22 14 -29 29 -29 66c0 146 37 406 78 451c0 54 16 81 48 81c23 0 52 -32 52 -57c-3 -10 -5 -18 -5 -20c0 -46 125 -314 157 -365l7 9c19 105 114 438 144 469c12 13 23 19 33 19
c29 0 76 -28 76 -52zM417 761c0 -15 -26 -70 -40 -87c-14 -16 -35 -24 -64 -24c-34 0 -61 21 -95 68c-12 16 -20 24 -24 24s-47 -26 -51 -30c-33 -52 -34 -52 -38 -52h-35v29c0 38 58 90 100 90c60 0 62 -1 103 -47c24 -26 40 -39 47 -39c23 0 47 40 54 87l23 2
c13 0 20 -7 20 -21z" />
    <glyph glyph-name="Ograve" unicode="&#xd2;" horiz-adv-x="666" 
d="M621 358c0 -161 -179 -351 -295 -351l-3 2l2 3l-3 2c-11 -7 -19 -11 -24 -11c-81 0 -144 20 -187 60c-42 38 -83 135 -83 211l4 4c-3 6 -5 13 -5 21c0 61 62 215 102 254c73 68 120 104 142 108l3 -2l-3 -3l3 -2c19 5 52 14 54 14c4 0 10 -4 19 -11s15 -10 19 -10l22 4
c38 0 139 -69 184 -137c33 -49 49 -101 49 -156zM528 372c0 119 -98 244 -199 244c-35 0 -59 -5 -70 -15c27 -13 41 -28 41 -43c0 -13 -16 -28 -29 -28c-1 0 -1 0 -9 4c-63 0 -141 -138 -141 -288c0 -102 58 -177 141 -177c120 0 266 186 266 303zM380 725h-40
c-11 8 -25 21 -43 38c-13 19 -15 21 -127 99v16l44 -10c13 4 21 6 25 6c17 0 127 -109 141 -149z" />
    <glyph glyph-name="Oacute" unicode="&#xd3;" horiz-adv-x="666" 
d="M621 358c0 -161 -179 -351 -295 -351l-3 2l2 3l-3 2c-11 -7 -19 -11 -24 -11c-81 0 -144 20 -187 60c-42 38 -83 135 -83 211l4 4c-3 6 -5 13 -5 21c0 61 62 215 102 254c73 68 120 104 142 108l3 -2l-3 -3l3 -2c19 5 52 14 54 14c4 0 10 -4 19 -11s15 -10 19 -10l22 4
c38 0 139 -69 184 -137c33 -49 49 -101 49 -156zM528 372c0 119 -98 244 -199 244c-35 0 -59 -5 -70 -15c27 -13 41 -28 41 -43c0 -13 -16 -28 -29 -28c-1 0 -1 0 -9 4c-63 0 -141 -138 -141 -288c0 -102 58 -177 141 -177c120 0 266 186 266 303zM388 850
c-99 -79 -119 -95 -150 -137l-40 -1c0 29 0 30 44 85c50 63 56 68 90 68h56v-15z" />
    <glyph glyph-name="Ocircumflex" unicode="&#xd4;" horiz-adv-x="666" 
d="M621 358c0 -161 -179 -351 -295 -351l-3 2l2 3l-3 2c-11 -7 -19 -11 -24 -11c-81 0 -144 20 -187 60c-42 38 -83 135 -83 211l4 4c-3 6 -5 13 -5 21c0 61 62 215 102 254c73 68 120 104 142 108l3 -2l-3 -3l3 -2c19 5 52 14 54 14c4 0 10 -4 19 -11s15 -10 19 -10l22 4
c38 0 139 -69 184 -137c33 -49 49 -101 49 -156zM528 372c0 119 -98 244 -199 244c-35 0 -59 -5 -70 -15c27 -13 41 -28 41 -43c0 -13 -16 -28 -29 -28c-1 0 -1 0 -9 4c-63 0 -141 -138 -141 -288c0 -102 58 -177 141 -177c120 0 266 186 266 303zM447 725l-44 3
c-19 29 -22 35 -79 160c-17 -15 -36 -40 -55 -77l-45 -86h-41c0 45 9 61 141 241h15c10 -47 69 -169 108 -225v-16z" />
    <glyph glyph-name="Otilde" unicode="&#xd5;" horiz-adv-x="668" 
d="M621 358c0 -161 -179 -351 -295 -351l-3 2l2 3l-3 2c-11 -7 -19 -11 -24 -11c-81 0 -144 20 -187 60c-42 38 -83 135 -83 211l4 4c-3 6 -5 13 -5 21c0 61 62 215 102 254c73 68 120 104 142 108l3 -2l-3 -3l3 -2c19 5 52 14 54 14c4 0 10 -4 19 -11s15 -10 19 -10l22 4
c38 0 139 -69 184 -137c33 -49 49 -101 49 -156zM528 372c0 119 -98 244 -199 244c-35 0 -59 -5 -70 -15c27 -13 41 -28 41 -43c0 -13 -16 -28 -29 -28c-1 0 -1 0 -9 4c-63 0 -141 -138 -141 -288c0 -102 58 -177 141 -177c120 0 266 186 266 303zM416 761
c0 -15 -26 -70 -40 -87c-14 -16 -35 -24 -64 -24c-34 0 -61 21 -95 68c-12 16 -20 24 -24 24s-47 -26 -51 -30c-33 -52 -34 -52 -38 -52h-35v29c0 38 58 90 100 90c60 0 62 -1 103 -47c24 -26 40 -39 47 -39c23 0 47 40 54 87l23 2c13 0 20 -7 20 -21z" />
    <glyph glyph-name="Odieresis" unicode="&#xd6;" horiz-adv-x="666" 
d="M620 358c0 -161 -179 -351 -295 -351l-3 2l2 3l-3 2c-11 -7 -19 -11 -24 -11c-81 0 -144 20 -187 60c-42 38 -83 135 -83 211l4 4c-3 6 -5 13 -5 21c0 61 62 215 102 254c73 68 120 104 142 108l3 -2l-3 -3l3 -2c19 5 52 14 54 14c4 0 10 -4 19 -11s15 -10 19 -10l22 4
c38 0 139 -69 184 -137c33 -49 49 -101 49 -156zM527 372c0 119 -98 244 -199 244c-35 0 -59 -5 -70 -15c27 -13 41 -28 41 -43c0 -13 -16 -28 -29 -28c-1 0 -1 0 -9 4c-63 0 -141 -138 -141 -288c0 -102 58 -177 141 -177c120 0 266 186 266 303zM504 752
c0 -29 -53 -51 -76 -51c-21 0 -66 23 -66 42c0 18 47 53 70 62c25 -2 72 -35 72 -53zM214 762c0 -25 -50 -71 -76 -71c-21 0 -66 23 -66 42c0 16 52 61 80 72c24 -1 62 -25 62 -43z" />
    <glyph glyph-name="Ugrave" unicode="&#xd9;" horiz-adv-x="623" 
d="M572 344c0 -24 -13 -70 -40 -137c-46 -116 -105 -176 -177 -180c-17 -13 -44 -19 -79 -19c-31 0 -36 3 -113 43c-83 40 -135 151 -135 273c0 75 26 222 52 261c3 5 34 40 45 40c20 0 61 -19 64 -36c-32 -44 -69 -199 -69 -277c0 -134 25 -162 67 -201
c29 -27 31 -28 89 -28c1 0 2 0 14 7c76 0 171 143 184 269c11 111 17 195 17 254c0 10 4 15 11 15l3 -1l-3 -4l3 -1c7 0 13 2 20 6c7 -8 13 -12 18 -12l5 2l24 -56v-218zM381 675h-40c-11 8 -25 21 -43 38c-13 19 -15 21 -127 99v16l44 -10c13 4 21 6 25 6
c17 0 127 -109 141 -149z" />
    <glyph glyph-name="Uacute" unicode="&#xda;" horiz-adv-x="623" 
d="M572 344c0 -24 -13 -70 -40 -137c-46 -116 -105 -176 -177 -180c-17 -13 -44 -19 -79 -19c-31 0 -36 3 -113 43c-83 40 -135 151 -135 273c0 75 26 222 52 261c3 5 34 40 45 40c20 0 61 -19 64 -36c-32 -44 -69 -199 -69 -277c0 -134 25 -162 67 -201
c29 -27 31 -28 89 -28c1 0 2 0 14 7c76 0 171 143 184 269c11 111 17 195 17 254c0 10 4 15 11 15l3 -1l-3 -4l3 -1c7 0 13 2 20 6c7 -8 13 -12 18 -12l5 2l24 -56v-218zM389 850c-99 -79 -119 -95 -150 -137l-40 -1c0 29 0 30 44 85c50 63 56 68 90 68h56v-15z" />
    <glyph glyph-name="Ucircumflex" unicode="&#xdb;" horiz-adv-x="623" 
d="M572 344c0 -24 -13 -70 -40 -137c-46 -116 -105 -176 -177 -180c-17 -13 -44 -19 -79 -19c-31 0 -36 3 -113 43c-83 40 -135 151 -135 273c0 75 26 222 52 261c3 5 34 40 45 40c20 0 61 -19 64 -36c-32 -44 -69 -199 -69 -277c0 -134 25 -162 67 -201
c29 -27 31 -28 89 -28c1 0 2 0 14 7c76 0 171 143 184 269c11 111 17 195 17 254c0 10 4 15 11 15l3 -1l-3 -4l3 -1c7 0 13 2 20 6c7 -8 13 -12 18 -12l5 2l24 -56v-218zM448 725l-44 3c-19 29 -22 35 -79 160c-17 -15 -36 -40 -55 -77l-45 -86h-41c0 45 9 61 141 241h15
c10 -47 69 -169 108 -225v-16z" />
    <glyph glyph-name="Udieresis" unicode="&#xdc;" horiz-adv-x="623" 
d="M572 344c0 -24 -13 -70 -40 -137c-46 -116 -105 -176 -177 -180c-17 -13 -44 -19 -79 -19c-31 0 -36 3 -113 43c-83 40 -135 151 -135 273c0 75 26 222 52 261c3 5 34 40 45 40c20 0 61 -19 64 -36c-32 -44 -69 -199 -69 -277c0 -134 25 -162 67 -201
c29 -27 31 -28 89 -28c1 0 2 0 14 7c76 0 171 143 184 269c11 111 17 195 17 254c0 10 4 15 11 15l3 -1l-3 -4l3 -1c7 0 13 2 20 6c7 -8 13 -12 18 -12l5 2l24 -56v-218zM506 752c0 -29 -53 -51 -76 -51c-21 0 -66 23 -66 42c0 18 47 53 70 62c25 -2 72 -35 72 -53zM216 762
c0 -25 -50 -71 -76 -71c-21 0 -66 23 -66 42c0 16 52 61 80 72c24 -1 62 -25 62 -43z" />
    <glyph glyph-name="Yacute" unicode="&#xdd;" horiz-adv-x="416" 
d="M391 589c0 -34 -20 -100 -60 -199l-85 -207c-10 -37 -26 -93 -47 -168h-20c-13 0 -15 2 -15 7l-4 3l-3 -2l2 -3l-2 -2c-15 2 -30 16 -30 29c0 85 8 112 32 166c7 15 10 27 10 36c-127 177 -127 178 -166 309c-13 44 -19 71 -19 81c0 15 20 29 43 29c27 0 46 -13 57 -40
c23 -114 55 -199 110 -295c16 29 33 77 51 146c30 115 52 162 77 162c10 0 34 -8 44 -18c17 -1 25 -13 25 -34zM390 850c-99 -79 -119 -95 -150 -137l-40 -1c0 29 0 30 44 85c50 63 56 68 90 68h56v-15z" />
    <glyph glyph-name="agrave" unicode="&#xe0;" horiz-adv-x="536" 
d="M508 27c0 -34 -23 -51 -69 -51l-20 14c-47 31 -47 32 -83 88c-90 -56 -111 -68 -161 -68l-30 8c-1 0 -2 0 -19 -4c-80 0 -134 92 -134 173c0 105 44 165 133 181c18 12 50 18 95 18c82 0 158 -32 170 -73c4 -12 7 -30 8 -53c5 -87 45 -201 65 -201c3 2 12 4 13 4
c11 0 32 -26 32 -36zM294 300c-1 2 -2 5 -5 10c-29 6 -64 9 -104 9c-42 0 -99 -62 -99 -107c0 -95 30 -142 89 -142c17 0 64 33 79 50c30 33 30 50 33 170c5 2 7 5 7 10zM284 421h-40c-11 8 -25 21 -43 38c-13 19 -15 21 -127 99v16l44 -10c13 4 21 6 25 6
c17 0 127 -109 141 -149z" />
    <glyph glyph-name="aacute" unicode="&#xe1;" horiz-adv-x="537" 
d="M509 27c0 -34 -23 -51 -69 -51l-20 14c-47 31 -47 32 -83 88c-90 -56 -111 -68 -161 -68l-30 8c-1 0 -2 0 -19 -4c-80 0 -134 92 -134 173c0 105 44 165 133 181c18 12 50 18 95 18c82 0 158 -32 170 -73c4 -12 7 -30 8 -53c5 -87 45 -201 65 -201c3 2 12 4 13 4
c11 0 32 -26 32 -36zM295 300c-1 2 -2 5 -5 10c-29 6 -64 9 -104 9c-42 0 -99 -62 -99 -107c0 -95 30 -142 89 -142c17 0 64 33 79 50c30 33 30 50 33 170c5 2 7 5 7 10zM383 606c-99 -79 -119 -95 -150 -137l-40 -1c0 29 0 30 44 85c50 63 56 68 90 68h56v-15z" />
    <glyph glyph-name="acircumflex" unicode="&#xe2;" horiz-adv-x="533" 
d="M507 27c0 -34 -23 -51 -69 -51l-20 14c-47 31 -47 32 -83 88c-90 -56 -111 -68 -161 -68l-30 8c-1 0 -2 0 -19 -4c-80 0 -134 92 -134 173c0 105 44 165 133 181c18 12 50 18 95 18c82 0 158 -32 170 -73c4 -12 7 -30 8 -53c5 -87 45 -201 65 -201c3 2 12 4 13 4
c11 0 32 -26 32 -36zM293 300c-1 2 -2 5 -5 10c-29 6 -64 9 -104 9c-42 0 -99 -62 -99 -107c0 -95 30 -142 89 -142c17 0 64 33 79 50c30 33 30 50 33 170c5 2 7 5 7 10zM360 481l-44 3c-19 29 -22 35 -79 160c-17 -15 -36 -40 -55 -77l-45 -86h-41c0 45 9 61 141 241h15
c10 -47 69 -169 108 -225v-16z" />
    <glyph glyph-name="atilde" unicode="&#xe3;" horiz-adv-x="480" 
d="M511 27c0 -34 -23 -51 -69 -51l-20 14c-47 31 -47 32 -83 88c-90 -56 -111 -68 -161 -68l-30 8c-1 0 -2 0 -19 -4c-80 0 -134 92 -134 173c0 105 44 165 133 181c18 12 50 18 95 18c82 0 158 -32 170 -73c4 -12 7 -30 8 -53c5 -87 45 -201 65 -201c3 2 12 4 13 4
c11 0 32 -26 32 -36zM297 300c-1 2 -2 5 -5 10c-29 6 -64 9 -104 9c-42 0 -99 -62 -99 -107c0 -95 30 -142 89 -142c17 0 64 33 79 50c30 33 30 50 33 170c5 2 7 5 7 10zM413 517c0 -15 -26 -70 -40 -87c-14 -16 -35 -24 -64 -24c-34 0 -61 21 -95 68c-12 16 -20 24 -24 24
s-47 -26 -51 -30c-33 -52 -34 -52 -38 -52h-35v29c0 38 58 90 100 90c60 0 62 -1 103 -47c24 -26 40 -39 47 -39c23 0 47 40 54 87l23 2c13 0 20 -7 20 -21z" />
    <glyph glyph-name="adieresis" unicode="&#xe4;" horiz-adv-x="540" 
d="M505 27c0 -34 -23 -51 -69 -51l-20 14c-47 31 -47 32 -83 88c-90 -56 -111 -68 -161 -68l-30 8c-1 0 -2 0 -19 -4c-80 0 -134 92 -134 173c0 105 44 165 133 181c18 12 50 18 95 18c82 0 158 -32 170 -73c4 -12 7 -30 8 -53c5 -87 45 -201 65 -201c3 2 12 4 13 4
c11 0 32 -26 32 -36zM291 300c-1 2 -2 5 -5 10c-29 6 -64 9 -104 9c-42 0 -99 -62 -99 -107c0 -95 30 -142 89 -142c17 0 64 33 79 50c30 33 30 50 33 170c5 2 7 5 7 10zM496 508c0 -29 -53 -51 -76 -51c-21 0 -66 23 -66 42c0 18 47 53 70 62c25 -2 72 -35 72 -53zM206 518
c0 -25 -50 -71 -76 -71c-21 0 -66 23 -66 42c0 16 52 61 80 72c24 -1 62 -25 62 -43z" />
    <glyph glyph-name="aring" unicode="&#xe5;" horiz-adv-x="482" 
d="M511 27c0 -34 -23 -51 -69 -51l-20 14c-47 31 -47 32 -83 88c-90 -56 -111 -68 -161 -68l-30 8c-1 0 -2 0 -19 -4c-80 0 -134 92 -134 173c0 105 44 165 133 181c18 12 50 18 95 18c82 0 158 -32 170 -73c4 -12 7 -30 8 -53c5 -87 45 -201 65 -201c3 2 12 4 13 4
c11 0 32 -26 32 -36zM297 300c-1 2 -2 5 -5 10c-29 6 -64 9 -104 9c-42 0 -99 -62 -99 -107c0 -95 30 -142 89 -142c17 0 64 33 79 50c30 33 30 50 33 170c5 2 7 5 7 10zM414 437c0 -61 -22 -75 -108 -75c-67 0 -100 21 -100 64v44c0 31 55 78 89 78c74 0 119 -42 119 -111z
M380 461c0 17 -52 44 -79 44c-1 0 -18 -11 -51 -34v-42c27 -19 48 -29 61 -29c38 0 69 27 69 61z" />
    <glyph glyph-name="ae" unicode="&#xe6;" horiz-adv-x="748" 
d="M409 27c0 -34 -23 -51 -69 -51l-20 14c-47 31 -47 32 -83 88c-90 -56 -111 -68 -161 -68l-30 8c-1 0 -2 0 -19 -4c-80 0 -134 92 -134 173c0 105 44 165 133 181c18 12 50 18 95 18c82 0 158 -32 170 -73c4 -12 7 -30 8 -53c5 -87 45 -201 65 -201c3 2 12 4 13 4
c11 0 32 -26 32 -36zM195 300c-1 2 -2 5 -5 10c-29 6 -64 9 -104 9c-42 0 -99 -62 -99 -107c0 -95 30 -142 89 -142c17 0 64 33 79 50c30 33 30 50 33 170c5 2 7 5 7 10zM710 286c0 -68 -126 -158 -213 -158l-74 11l-2 -6c0 -31 45 -74 111 -84c24 -2 42 -5 150 -21v-30
c-12 0 -24 -1 -137 -11c-106 0 -223 95 -223 192c0 72 68 168 138 195c31 12 66 18 104 18c10 -5 16 -7 19 -7c11 4 12 4 14 4c6 0 82 -40 89 -48c16 -13 24 -31 24 -55zM621 296c0 16 -17 24 -52 24c-54 0 -121 -55 -140 -116c120 0 192 51 192 92z" />
    <glyph glyph-name="ccedilla" unicode="&#xe7;" horiz-adv-x="393" 
d="M363 355c0 -21 -11 -31 -34 -31c-11 0 -27 3 -48 10s-36 11 -47 11c-56 0 -93 -24 -110 -71c-15 -40 -22 -64 -22 -71c0 -80 76 -140 174 -140l18 6c15 0 38 -19 38 -32c0 -17 -13 -26 -38 -26c-21 -9 -24 -10 -25 -10c-70 0 -173 50 -204 100c-8 17 -22 43 -41 76
c-8 29 -8 30 -8 32c0 117 53 192 163 192c6 1 54 6 55 6c69 0 129 -30 129 -52zM243 -152c-24 -5 -40 -8 -48 -8c-64 0 -84 11 -84 45c0 53 24 81 73 85v52h32v-82c-55 0 -76 -11 -76 -34l8 -38c5 -3 10 -5 16 -5c27 6 54 12 58 12h21v-27z" />
    <glyph glyph-name="egrave" unicode="&#xe8;" horiz-adv-x="444" 
d="M405 286c0 -68 -126 -158 -213 -158l-74 11l-2 -6c0 -31 45 -74 111 -84c24 -2 42 -5 150 -21v-30c-12 0 -24 -1 -137 -11c-106 0 -223 95 -223 192c0 72 68 168 138 195c31 12 66 18 104 18c10 -5 16 -7 19 -7c11 4 12 4 14 4c6 0 82 -40 89 -48c16 -13 24 -31 24 -55z
M316 296c0 16 -17 24 -52 24c-54 0 -121 -55 -140 -116c21 0 31 0 70 3c26 0 122 52 122 89zM288 421h-40c-11 8 -25 21 -43 38c-13 19 -15 21 -127 99v16l44 -10c13 4 21 6 25 6c17 0 127 -109 141 -149z" />
    <glyph glyph-name="eacute" unicode="&#xe9;" horiz-adv-x="445" 
d="M406 286c0 -68 -126 -158 -213 -158l-74 11l-2 -6c0 -31 45 -74 111 -84c24 -2 42 -5 150 -21v-30c-12 0 -24 -1 -137 -11c-106 0 -223 95 -223 192c0 72 68 168 138 195c31 12 66 18 104 18c10 -5 16 -7 19 -7c11 4 12 4 14 4c6 0 82 -40 89 -48c16 -13 24 -31 24 -55z
M317 296c0 16 -17 24 -52 24c-54 0 -121 -55 -140 -116c120 0 192 51 192 92zM387 606c-99 -79 -119 -95 -150 -137l-40 -1c0 29 0 30 44 85c50 63 56 68 90 68h56v-15z" />
    <glyph glyph-name="ecircumflex" unicode="&#xea;" horiz-adv-x="435" 
d="M406 286c0 -68 -126 -158 -213 -158l-74 11l-2 -6c0 -31 45 -74 111 -84c24 -2 42 -5 150 -21v-30c-12 0 -24 -1 -137 -11c-106 0 -223 95 -223 192c0 72 68 168 138 195c31 12 66 18 104 18c10 -5 16 -7 19 -7c11 4 12 4 14 4c6 0 82 -40 89 -48c16 -13 24 -31 24 -55z
M317 296c0 16 -17 24 -52 24c-54 0 -121 -55 -140 -116c120 0 192 51 192 92zM366 481l-44 3c-19 29 -22 35 -79 160c-17 -15 -36 -40 -55 -77l-45 -86h-41c0 45 9 61 141 241h15c10 -47 69 -169 108 -225v-16z" />
    <glyph glyph-name="edieresis" unicode="&#xeb;" horiz-adv-x="469" 
d="M405 286c0 -68 -126 -158 -213 -158l-74 11l-2 -6c0 -31 45 -74 111 -84c24 -2 42 -5 150 -21v-30c-12 0 -24 -1 -137 -11c-106 0 -223 95 -223 192c0 72 68 168 138 195c31 12 66 18 104 18c10 -5 16 -7 19 -7c11 4 12 4 14 4c6 0 82 -40 89 -48c16 -13 24 -31 24 -55z
M316 296c0 16 -17 24 -52 24c-54 0 -121 -55 -140 -116c21 0 31 0 70 3c26 0 122 52 122 89zM503 508c0 -29 -53 -51 -76 -51c-21 0 -66 23 -66 42c0 18 47 53 70 62c25 -2 72 -35 72 -53zM213 518c0 -25 -50 -71 -76 -71c-21 0 -66 23 -66 42c0 16 52 61 80 72
c24 -1 62 -25 62 -43z" />
    <glyph glyph-name="igrave" unicode="&#xec;" horiz-adv-x="373" 
d="M307 300c-5 -58 -5 -69 -5 -192c0 -48 -5 -81 -16 -98c-9 -3 -24 -8 -25 -8c-9 0 -14 1 -16 3l-8 14l-3 -10c-27 42 -40 90 -40 144v106c0 72 9 96 43 96c40 0 70 -24 70 -55zM320 411h-40c-11 8 -25 21 -43 38c-13 19 -15 21 -127 99v16l44 -10c13 4 21 6 25 6
c17 0 127 -109 141 -149z" />
    <glyph glyph-name="iacute" unicode="&#xed;" horiz-adv-x="318" 
d="M246 300c-5 -58 -5 -69 -5 -192c0 -48 -5 -81 -16 -98c-9 -3 -24 -8 -25 -8c-9 0 -14 1 -16 3l-8 14l-3 -10c-27 42 -40 90 -40 144v106c0 72 9 96 43 96c40 0 70 -24 70 -55zM287 606c-99 -79 -119 -95 -150 -137l-40 -1c0 29 0 30 44 85c50 63 56 68 90 68h56v-15z" />
    <glyph glyph-name="icircumflex" unicode="&#xee;" horiz-adv-x="336" 
d="M272 300c-5 -58 -5 -69 -5 -192c0 -48 -5 -81 -16 -98c-9 -3 -24 -8 -25 -8c-9 0 -14 1 -16 3l-8 14l-3 -10c-27 42 -40 90 -40 144v106c0 72 9 96 43 96c40 0 70 -24 70 -55zM292 481l-44 3c-19 29 -22 35 -79 160c-17 -15 -36 -40 -55 -77l-45 -86h-41
c0 45 9 61 141 241h15c10 -47 69 -169 108 -225v-16z" />
    <glyph glyph-name="idieresis" unicode="&#xef;" horiz-adv-x="464" 
d="M340 300c-5 -58 -5 -69 -5 -192c0 -48 -5 -81 -16 -98c-9 -3 -24 -8 -25 -8c-9 0 -14 1 -16 3l-8 14l-3 -10c-27 42 -40 90 -40 144v106c0 72 9 96 43 96c40 0 70 -24 70 -55zM498 508c0 -29 -53 -51 -76 -51c-21 0 -66 23 -66 42c0 18 47 53 70 62c25 -2 72 -35 72 -53z
M208 518c0 -25 -50 -71 -76 -71c-21 0 -66 23 -66 42c0 16 52 61 80 72c24 -1 62 -25 62 -43z" />
    <glyph glyph-name="ntilde" unicode="&#xf1;" horiz-adv-x="489" 
d="M423 217c0 -52 -8 -96 -23 -132c-17 -79 -22 -97 -42 -97c-3 2 -15 10 -22 17l-8 -3c-3 0 -7 4 -10 13s-6 13 -10 13c-2 0 -4 -1 -7 -2c15 59 23 125 23 198c0 55 -7 86 -22 95c-34 0 -103 -65 -128 -117c-16 -35 -38 -130 -46 -168c-5 -19 -16 -29 -31 -29
c-37 0 -74 29 -74 58c0 294 6 297 58 297c25 0 53 -28 54 -55c51 51 73 66 93 66l7 -4c18 12 22 14 24 14c29 0 47 -3 54 -8c5 -6 9 -9 12 -9l8 3c47 0 90 -77 90 -150zM420 517c0 -15 -26 -70 -40 -87c-14 -16 -35 -24 -64 -24c-34 0 -61 21 -95 68c-12 16 -20 24 -24 24
s-47 -26 -51 -30c-33 -52 -34 -52 -38 -52h-35v29c0 38 58 90 100 90c60 0 62 -1 103 -47c24 -26 40 -39 47 -39c23 0 47 40 54 87l23 2c13 0 20 -7 20 -21z" />
    <glyph glyph-name="ograve" unicode="&#xf2;" horiz-adv-x="524" 
d="M470 212c0 -110 -139 -208 -234 -208c-87 0 -117 13 -162 60c-38 41 -57 86 -57 135c0 2 4 16 13 42c-2 8 -2 14 -2 16c0 47 70 141 107 141c4 0 10 -4 18 -11s15 -10 20 -10s5 0 49 21c52 0 55 -2 79 -17c1 0 16 5 21 7c63 -32 148 -93 148 -176zM373 224
c0 61 -53 116 -113 116c-17 0 -31 -5 -42 -16l-22 -22c-20 -8 -40 -16 -61 -24c-13 -9 -19 -30 -19 -63c0 -97 25 -146 75 -146c84 0 182 81 182 155zM319 441h-40c-11 8 -25 21 -43 38c-13 19 -15 21 -127 99v16l44 -10c13 4 21 6 25 6c17 0 127 -109 141 -149z" />
    <glyph glyph-name="oacute" unicode="&#xf3;" horiz-adv-x="518" 
d="M472 212c0 -110 -139 -208 -234 -208c-87 0 -117 13 -162 60c-38 41 -57 86 -57 135c0 2 4 16 13 42c-2 8 -2 14 -2 16c0 47 70 141 107 141c4 0 10 -4 18 -11s15 -10 20 -10s5 0 49 21c52 0 55 -2 79 -17c1 0 16 5 21 7c63 -32 148 -93 148 -176zM375 224
c0 61 -53 116 -113 116c-17 0 -31 -5 -42 -16l-22 -22c-20 -8 -40 -16 -61 -24c-13 -9 -19 -30 -19 -63c0 -97 25 -146 75 -146c84 0 182 81 182 155zM389 606c-99 -79 -119 -95 -150 -137l-40 -1c0 29 0 30 44 85c50 63 56 68 90 68h56v-15z" />
    <glyph glyph-name="ocircumflex" unicode="&#xf4;" horiz-adv-x="514" 
d="M470 212c0 -110 -139 -208 -234 -208c-87 0 -117 13 -162 60c-38 41 -57 86 -57 135c0 2 4 16 13 42c-2 8 -2 14 -2 16c0 47 70 141 107 141c4 0 10 -4 18 -11s15 -10 20 -10s5 0 49 21c52 0 55 -2 79 -17c1 0 16 5 21 7c63 -32 148 -93 148 -176zM373 224
c0 61 -53 116 -113 116c-17 0 -31 -5 -42 -16l-22 -22c-20 -8 -40 -16 -61 -24c-13 -9 -19 -30 -19 -63c0 -97 25 -146 75 -146c84 0 182 81 182 155zM366 481l-44 3c-19 29 -22 35 -79 160c-17 -15 -36 -40 -55 -77l-45 -86h-41c0 45 9 61 141 241h15
c10 -47 69 -169 108 -225v-16z" />
    <glyph glyph-name="otilde" unicode="&#xf5;" horiz-adv-x="513" 
d="M470 212c0 -110 -139 -208 -234 -208c-87 0 -117 13 -162 60c-38 41 -57 86 -57 135c0 2 4 16 13 42c-2 8 -2 14 -2 16c0 47 70 141 107 141c4 0 10 -4 18 -11s15 -10 20 -10s5 0 49 21c52 0 55 -2 79 -17c1 0 16 5 21 7c63 -32 148 -93 148 -176zM373 224
c0 61 -53 116 -113 116c-17 0 -31 -5 -42 -16l-22 -22c-20 -8 -40 -16 -61 -24c-13 -9 -19 -30 -19 -63c0 -97 25 -146 75 -146c84 0 182 81 182 155zM415 547c0 -15 -26 -70 -40 -87c-14 -16 -35 -24 -64 -24c-34 0 -61 21 -95 68c-12 16 -20 24 -24 24s-47 -26 -51 -30
c-33 -52 -34 -52 -38 -52h-35v29c0 38 58 90 100 90c60 0 62 -1 103 -47c24 -26 40 -39 47 -39c23 0 47 40 54 87l23 2c13 0 20 -7 20 -21z" />
    <glyph glyph-name="odieresis" unicode="&#xf6;" horiz-adv-x="530" 
d="M471 212c0 -110 -139 -208 -234 -208c-87 0 -117 13 -162 60c-38 41 -57 86 -57 135c0 2 4 16 13 42c-2 8 -2 14 -2 16c0 47 70 141 107 141c4 0 10 -4 18 -11s15 -10 20 -10s5 0 49 21c52 0 55 -2 79 -17c1 0 16 5 21 7c63 -32 148 -93 148 -176zM374 224
c0 61 -53 116 -113 116c-17 0 -31 -5 -42 -16l-22 -22c-20 -8 -40 -16 -61 -24c-13 -9 -19 -30 -19 -63c0 -97 25 -146 75 -146c84 0 182 81 182 155zM505 508c0 -29 -53 -51 -76 -51c-21 0 -66 23 -66 42c0 18 47 53 70 62c25 -2 72 -35 72 -53zM215 518
c0 -25 -50 -71 -76 -71c-21 0 -66 23 -66 42c0 16 52 61 80 72c24 -1 62 -25 62 -43z" />
    <glyph glyph-name="ugrave" unicode="&#xf9;" horiz-adv-x="539" 
d="M486 291c0 -160 -96 -291 -214 -291h-65c-7 0 -28 11 -63 33c-76 49 -114 136 -114 262c0 51 30 77 89 77c11 0 24 -24 24 -30c-6 -34 -13 -69 -13 -74c0 -94 58 -200 111 -200l10 -6c34 0 105 86 120 141c10 37 15 74 15 111c0 8 -1 12 -13 68c17 12 30 18 39 18
c2 -1 10 -4 12 -4l5 7c38 0 57 -37 57 -112zM331 431h-40c-11 8 -25 21 -43 38c-13 19 -15 21 -127 99v16l44 -10c13 4 21 6 25 6c17 0 127 -109 141 -149z" />
    <glyph glyph-name="uacute" unicode="&#xfa;" horiz-adv-x="539" 
d="M488 291c0 -160 -96 -291 -214 -291h-65c-7 0 -28 11 -63 33c-76 49 -114 136 -114 262c0 51 30 77 89 77c11 0 24 -24 24 -30c-6 -34 -13 -69 -13 -74c0 -94 58 -200 111 -200c7 -5 8 -5 10 -6c34 0 105 86 120 141c10 37 15 74 15 111c0 8 -1 12 -13 68
c17 12 30 18 39 18l12 -4l5 7c38 0 57 -37 57 -112zM381 606c-99 -79 -119 -95 -150 -137l-40 -1c0 29 0 30 44 85c50 63 56 68 90 68h56v-15z" />
    <glyph glyph-name="ucircumflex" unicode="&#xfb;" horiz-adv-x="535" 
d="M485 291c0 -160 -96 -291 -214 -291h-65c-7 0 -28 11 -63 33c-76 49 -114 136 -114 262c0 51 30 77 89 77c11 0 24 -24 24 -30c-6 -34 -13 -69 -13 -74c0 -94 58 -200 111 -200l10 -6c34 0 105 86 120 141c10 37 15 74 15 111c0 8 -1 12 -13 68c17 12 30 18 39 18l12 -4
l5 7c38 0 57 -37 57 -112zM357 481l-44 3c-19 29 -22 35 -79 160c-17 -15 -36 -40 -55 -77l-45 -86h-41c0 45 9 61 141 241h15c10 -47 69 -169 108 -225v-16z" />
    <glyph glyph-name="udieresis" unicode="&#xfc;" horiz-adv-x="541" 
d="M483 291c0 -160 -96 -291 -214 -291h-65c-7 0 -28 11 -63 33c-76 49 -114 136 -114 262c0 51 30 77 89 77c11 0 24 -24 24 -30c-6 -34 -13 -69 -13 -74c0 -94 58 -200 111 -200c7 -5 8 -5 10 -6c34 0 105 86 120 141c10 37 15 74 15 111c0 8 -1 12 -13 68
c17 12 30 18 39 18c3 -1 9 -4 12 -4l5 7c38 0 57 -37 57 -112zM493 508c0 -29 -53 -51 -76 -51c-21 0 -66 23 -66 42c0 18 47 53 70 62c25 -2 72 -35 72 -53zM203 518c0 -25 -50 -71 -76 -71c-21 0 -66 23 -66 42c0 16 52 61 80 72c24 -1 62 -25 62 -43z" />
    <glyph glyph-name="yacute" unicode="&#xfd;" horiz-adv-x="497" 
d="M460 339c0 -7 -41 -94 -124 -263c-85 -174 -132 -285 -141 -334l-50 -4c0 1 -12 5 -37 12c-3 7 -5 17 -5 29c0 33 15 78 45 136c31 57 47 97 48 120c-114 144 -189 322 -189 352c0 16 27 28 39 28c49 0 69 -25 83 -97c5 -18 84 -164 103 -195l65 153c35 81 61 121 79 121
c38 0 84 -28 84 -58zM396 606c-99 -79 -119 -95 -150 -137l-40 -1c0 29 0 30 44 85c50 63 56 68 90 68h56v-15z" />
    <glyph glyph-name="ydieresis" unicode="&#xff;" horiz-adv-x="503" 
d="M457 339c0 -7 -41 -94 -124 -263c-85 -174 -132 -285 -141 -334l-50 -4c0 1 -12 5 -37 12c-3 7 -5 17 -5 29c0 33 15 78 45 136c31 57 47 97 48 120c-114 144 -189 322 -189 352c0 16 27 28 39 28c49 0 69 -25 83 -97c5 -18 84 -164 103 -195l65 153c35 81 61 121 79 121
c38 0 84 -28 84 -58zM510 508c0 -29 -53 -51 -76 -51c-21 0 -66 23 -66 42c0 18 47 53 70 62c25 -2 72 -35 72 -53zM220 518c0 -25 -50 -71 -76 -71c-21 0 -66 23 -66 42c0 16 52 61 80 72c24 -1 62 -25 62 -43z" />
    <glyph glyph-name="OE" unicode="&#x152;" horiz-adv-x="925" 
d="M510 358c0 -161 -179 -351 -295 -351l-3 2l2 3l-3 2c-11 -7 -19 -11 -24 -11c-81 0 -144 20 -187 60c-42 38 -83 135 -83 211l4 4c-3 6 -5 13 -5 21c0 61 62 215 102 254c73 68 120 104 142 108l3 -2l-3 -3l3 -2c19 5 52 14 54 14c4 0 10 -4 19 -11s15 -10 19 -10l22 4
c38 0 139 -69 184 -137c33 -49 49 -101 49 -156zM417 372c0 119 -98 244 -199 244c-35 0 -59 -5 -70 -15c27 -13 41 -28 41 -43c0 -13 -16 -28 -29 -28c-1 0 -1 0 -9 4c-63 0 -141 -138 -141 -288c0 -102 58 -177 141 -177c120 0 266 186 266 303zM991 659
c-13 0 -20 -5 -21 -14c-3 5 -6 7 -11 7c-34 -10 -37 -11 -40 -11c-1 0 -4 0 -15 4c-18 -6 -39 -11 -41 -11s-3 0 -14 4c-12 -8 -25 -17 -26 -17c-2 4 -2 4 -5 6c-13 -8 -31 -18 -54 -30c-112 -32 -145 -44 -178 -61c9 -14 14 -22 14 -24c0 -15 -11 -22 -34 -22
c-8 0 -20 3 -35 8c-15 6 -26 9 -34 9c-14 0 -59 -113 -59 -145c7 -2 20 -3 37 -3c77 0 99 3 187 21c2 0 14 -5 37 -14c0 -7 0 -11 -4 -29c-53 -26 -199 -63 -256 -63c-3 0 -10 1 -22 4c-2 -27 -3 -39 -3 -49c0 -73 24 -110 88 -137c18 -7 32 -11 42 -11h73c14 0 40 7 78 21
l6 -6l7 3c8 -1 22 -19 22 -28c0 -27 -44 -51 -91 -51h-109c-58 0 -161 75 -183 132c-15 38 -22 72 -22 103c0 69 0 69 79 292c13 35 27 53 41 53c21 -5 30 -7 35 -7c162 50 319 93 349 93h162v-27z" />
    <glyph glyph-name="oe" unicode="&#x153;" horiz-adv-x="831" 
d="M371 212c0 -110 -139 -208 -234 -208c-87 0 -117 13 -162 60c-38 41 -57 86 -57 135c0 2 4 16 13 42c-2 8 -2 14 -2 16c0 47 70 141 107 141c4 0 10 -4 18 -11s15 -10 20 -10s5 0 49 21c52 0 55 -2 79 -17c1 0 16 5 21 7c63 -32 148 -93 148 -176zM274 224
c0 61 -53 116 -113 116c-17 0 -31 -5 -42 -16l-22 -22c-20 -8 -40 -16 -61 -24c-13 -9 -19 -30 -19 -63c0 -97 25 -146 75 -146c84 0 182 81 182 155zM795 286c0 -68 -126 -158 -213 -158l-74 11l-2 -6c0 -31 45 -74 111 -84c24 -2 42 -5 150 -21v-30c-12 0 -24 -1 -137 -11
c-106 0 -223 95 -223 192c0 72 68 168 138 195c31 12 66 18 104 18c10 -5 16 -7 19 -7c11 4 12 4 14 4c6 0 82 -40 89 -48c16 -13 24 -31 24 -55zM706 296c0 16 -17 24 -52 24c-54 0 -121 -55 -140 -116c21 0 31 0 70 3c26 0 122 52 122 89z" />
    <glyph glyph-name="circumflex" unicode="&#x2c6;" horiz-adv-x="272" 
d="M292 725l-44 3c-19 29 -22 35 -79 160c-17 -15 -36 -40 -55 -77l-45 -86h-41c0 45 9 61 141 241h15c10 -47 69 -169 108 -225v-16z" />
    <glyph glyph-name="tilde" unicode="&#x2dc;" horiz-adv-x="370" 
d="M362 761c0 -15 -26 -70 -40 -87c-14 -16 -35 -24 -64 -24c-34 0 -61 21 -95 68c-12 16 -20 24 -24 24s-47 -26 -51 -30c-33 -52 -34 -52 -38 -52h-35v29c0 38 58 90 100 90c60 0 62 -1 103 -47c24 -26 40 -39 47 -39c23 0 47 40 54 87l23 2c13 0 20 -7 20 -21z" />
    <glyph glyph-name="emdash" unicode="&#x2014;" horiz-adv-x="1026" 
d="M970 331c0 -11 -7 -21 -22 -30c-3 -2 -115 -6 -334 -11l-364 -8c-133 0 -199 20 -199 61c0 7 31 22 39 22c14 0 34 -3 61 -9c31 -6 107 -12 130 -12c70 0 175 4 316 12s246 12 316 12c1 0 9 -1 22 -3l7 -7c19 -7 28 -16 28 -27z" />
    <glyph glyph-name="quoteleft" unicode="&#x2018;" horiz-adv-x="256" 
d="M228 686c0 -16 -20 -47 -60 -93c-4 -6 -12 -31 -23 -76c-10 -39 -19 -59 -26 -59c-16 0 -72 52 -72 65c0 38 43 152 69 188c10 14 28 21 54 21c28 0 58 -23 58 -46z" />
    <glyph glyph-name="quoteright" unicode="&#x2019;" horiz-adv-x="256" 
d="M228 686c0 -16 -20 -47 -60 -93c-4 -6 -12 -31 -23 -76c-10 -39 -19 -59 -26 -59c-16 0 -72 52 -72 65c0 38 43 152 69 188c10 14 28 21 54 21c28 0 58 -23 58 -46z" />
    <glyph glyph-name="quotedblleft" unicode="&#x201c;" horiz-adv-x="446" 
d="M401 686c0 -31 -6 -60 -19 -88c-15 -32 -23 -58 -25 -77c-7 -54 -9 -56 -25 -63c-16 0 -72 53 -72 65c0 14 6 40 19 77c3 9 4 19 4 31c0 6 -2 48 -3 48v-3c0 42 18 56 75 56c17 0 46 -29 46 -46zM139 621c0 -7 -4 -18 -11 -32c-7 -13 -10 -24 -10 -31c0 -5 1 -10 11 -66
c0 -23 -9 -34 -27 -34c-5 0 -34 18 -37 21c-3 7 -8 14 -16 21c-19 16 -24 30 -24 78l14 107c8 37 24 47 76 47c11 0 24 -63 24 -111z" />
    <glyph glyph-name="quotedblright" unicode="&#x201d;" horiz-adv-x="446" 
d="M401 686c0 -31 -6 -60 -19 -88c-15 -32 -23 -58 -25 -77c-7 -54 -9 -56 -25 -63c-16 0 -72 53 -72 65c0 14 6 40 19 77c3 9 4 19 4 31c0 6 -2 48 -3 48v-3c0 42 18 56 75 56c17 0 46 -29 46 -46zM139 621c0 -7 -4 -18 -11 -32c-7 -13 -10 -24 -10 -31c0 -5 1 -10 11 -66
c0 -23 -9 -34 -27 -34c-5 0 -34 18 -37 21c-3 7 -8 14 -16 21c-19 16 -24 30 -24 78l14 107c8 37 24 47 76 47c11 0 24 -63 24 -111z" />
    <glyph glyph-name="ellipsis" unicode="&#x2026;" horiz-adv-x="857" 
d="M784 52c0 -20 -38 -41 -76 -41c-21 0 -66 33 -66 52c0 13 27 31 80 52c19 -1 62 -43 62 -63zM484 72c0 -27 -31 -61 -56 -61c-43 0 -106 16 -106 32s52 61 80 72c31 -2 82 -28 82 -43zM164 62c0 -29 -53 -51 -76 -51c-21 0 -66 23 -66 42c0 13 27 31 80 52
c24 -1 62 -25 62 -43z" />
    <glyph glyph-name="trademark" unicode="&#x2122;" horiz-adv-x="688" 
d="M628 709c-18 -129 -26 -189 -26 -258c0 -18 5 -33 14 -44c-10 -2 -19 2 -42 18c-8 11 -8 17 -8 208c-52 -48 -67 -69 -67 -88c0 -5 2 -10 5 -15l-25 1l-4 6l-7 -11c-9 8 -14 13 -14 15v-2c3 38 -16 77 -42 92c-1 -10 -1 -12 -21 -74c-3 -33 -12 -81 -27 -144
c-29 14 -31 16 -31 45c0 26 8 64 23 114c15 51 23 89 23 115c0 3 -2 9 -7 17c1 9 20 26 28 26c27 0 31 -18 31 -39c4 -15 14 -37 49 -92c13 17 32 40 59 71c39 20 39 22 43 44c1 7 5 12 11 15c17 2 35 -11 35 -20zM336 702c0 -7 -4 -11 -13 -11s-16 1 -49 5h-29l-4 -3
c-9 -35 -16 -81 -21 -137l-12 -137l-10 -6c-9 1 -15 3 -18 8l-3 -2l-11 8c-3 25 -4 45 10 144c8 55 12 97 12 125c-9 -4 -23 -6 -43 -7c-19 -1 -33 -3 -42 -7l-6 4c-1 0 -15 -4 -41 -12l-26 7c-5 5 -7 11 -7 28c8 9 28 14 59 16l67 4c5 1 13 3 23 4l10 -3c7 0 16 4 27 12
c9 0 21 -3 38 -10c17 -6 30 -9 39 -9l6 4l11 -5l3 1l14 -7l4 2c8 -1 12 -7 12 -16z" />
  </font>
</defs>
</svg>
